<svg width="480.33" height="63.912" version="1.1" viewBox="0 0 480.33 63.912" xmlns="http://www.w3.org/2000/svg"><g transform="translate(-566.26 -812.14)"><path transform="translate(-16.062)" d="M708.237,843.785c0-.112,0-.224,0-.335,0-.094-.006-.187-.009-.281,0-.125-.006-.249-.011-.373,0-.064-.007-.129-.01-.193-.007-.153-.014-.306-.023-.457,0-.022,0-.044,0-.067a31.924,31.924,0,0,0-.713-5c-.02-.087-.041-.174-.062-.261-.028-.118-.054-.236-.083-.353-.007-.029-.015-.06-.023-.09a31.874,31.874,0,0,0-5.175-11.066,42,42,0,0,0-11.416.819,37.178,37.178,0,0,0-5.677,1.739c-.441.214-.892.388-1.338.577s-.865.438-1.3.65c-.443.191-.852.452-1.275.684a11.236,11.236,0,0,0-1.232.754,30.712,30.712,0,0,0-2.692,1.89l0,0,0,0a34.344,34.344,0,0,0-5.929,6.006,43.553,43.553,0,0,0-6.211,11.506s-1.933-17.152,10.4-26.4a21.239,21.239,0,0,1,24.089-1.34,31.875,31.875,0,0,0-18.943-9.753,65.672,65.672,0,0,0-5.806,3.971,43.585,43.585,0,0,0-5.138,4.78A37.017,37.017,0,0,0,662.62,832.4a32.538,32.538,0,0,0-1.85,6.3,37.4,37.4,0,0,0-.737,6.682,47.9,47.9,0,0,0,2.138,14.4,23.286,23.286,0,0,1-8.586-13.646,27.61,27.61,0,0,1-.589-8.443,29.489,29.489,0,0,1,.635-4.243c.133-.706.392-1.379.587-2.07a17.285,17.285,0,0,1,.7-2.033A28.414,28.414,0,0,1,665.459,816.2a26.282,26.282,0,0,1,7.552-3.456,22.768,22.768,0,0,1,3.354-.6l-.089,0a31.97,31.97,0,0,0-11.721,61.712q.361.143.728.276c.137.05.276.1.415.146.106.037.212.076.319.113.2.069.41.135.616.2l.125.041c.244.076.489.148.735.219l.013,0q1.506.429,3.07.711h0l.176.03h0q.913.158,1.843.264l.259.029c.142.015.285.029.427.042l.34.03.386.029.4.025.344.018c.16.008.32.013.481.018l.044,0c19.456-20.9,1-37.065,1-37.065,14.919,1.132,18.047,13.247,14.687,23.1-2.425,7.115-9.214,12.656-12.721,13.914l-.013.006a31.974,31.974,0,0,0,26.965-18.277l.024-.052c.055-.117.109-.234.163-.351.022-.05.045-.1.068-.151.048-.1.094-.211.141-.316.034-.078.067-.156.1-.234.055-.129.109-.257.162-.386s.094-.229.14-.343c.025-.064.05-.128.075-.192q.07-.18.138-.361c.02-.052.04-.1.059-.157q.1-.257.187-.517v0h0c.006-.02.014-.04.021-.06h0c.068-.192.132-.385.2-.579.01-.03.02-.061.029-.092q.13-.4.251-.812h0q.168-.571.315-1.149c0-.01,0-.021.008-.031q.17-.678.313-1.367c.006-.033.013-.067.021-.1h0c.041-.2.078-.4.115-.6.014-.078.028-.156.041-.233h0q.055-.313.1-.627h0l.024-.16c.028-.188.054-.378.079-.568h0c0-.017,0-.034.006-.051q.051-.391.092-.785l0-.039a32.3,32.3,0,0,0,.17-3.309c0-.108,0-.215,0-.322" fill="#c3dbdb"/><rect transform="translate(699.83 814.01)" width="7.678" height="7.678" fill="#81c0c5"/><rect transform="translate(692.16 821.67)" width="7.678" height="7.678" fill="#81c0c5"/><rect transform="translate(684.48 821.67)" width="7.678" height="7.678" fill="#f6b319"/><rect transform="translate(684.48 829.35)" width="7.678" height="7.678" fill="#fcd088"/><rect transform="translate(699.83 829.35)" width="7.678" height="7.678" fill="#f6b319"/><rect transform="translate(676.82 829.35)" width="7.678" height="7.678" fill="#f6b319"/><rect transform="translate(676.82 837.03)" width="7.678" height="7.678" fill="#fcd088"/><rect transform="translate(684.48 837.03)" width="7.678" height="7.678" fill="#81c0c5"/><rect transform="translate(676.82 844.7)" width="7.678" height="7.678" fill="#81c0c5"/><rect transform="translate(661.46 844.7)" width="7.678" height="7.678" fill="#fcd088"/><rect transform="translate(669.14 852.38)" width="7.678" height="7.678" fill="#f6b319"/><rect transform="translate(661.46 860.05)" width="7.678" height="7.678" fill="#81c0c5"/><rect transform="translate(676.82 860.05)" width="7.678" height="7.678" fill="#f6b319"/><rect transform="translate(684.48 844.7)" width="7.678" height="7.678" fill="#fcd088"/><rect transform="translate(669.14 837.03)" width="7.678" height="7.678" fill="#81c0c5"/><rect transform="translate(676.82 814)" width="7.678" height="7.678" fill="#fcd088"/><g transform="translate(566.26 849.36)"><g fill="#075091"><path transform="translate(-566.26 -859.11)" d="m578.96 875.84v1.643h-12.7v-17.962h12.317v1.642h-10.421v6.389h9.29v1.617h-9.29v6.671z"/><path transform="translate(-570.71 -859.11)" d="m600.58 875.84v1.643h-12.7v-17.962h12.317v1.642h-10.42v6.389h9.289v1.617h-9.289v6.671z"/><path transform="translate(-575.16 -859.11)" d="m628.15 859.52v17.962h-1.822v-14.37l-7.056 12.089h-0.9l-7.056-12.009v14.293h-1.822v-17.965h1.565l7.8 13.317 7.724-13.317z"/><path transform="translate(-580.66 -859)" d="M651.693,872.679v4.7H637.3v-3.722l6.492-6a5.357,5.357,0,0,0,1.129-1.36,2.459,2.459,0,0,0,.282-1.1,1.277,1.277,0,0,0-.449-1.04,1.986,1.986,0,0,0-1.3-.372,2.907,2.907,0,0,0-1.539.437,2.854,2.854,0,0,0-1.1,1.231l-4.567-2.284a7.5,7.5,0,0,1,3-3.041,10.7,10.7,0,0,1,8.546-.422,5.9,5.9,0,0,1,2.566,1.975,4.924,4.924,0,0,1,.924,2.951,6.293,6.293,0,0,1-.629,2.785,10.438,10.438,0,0,1-2.45,2.938l-2.566,2.336Z"/><path transform="translate(-584.71 -859)" d="M671.337,872.679v4.7h-14.4v-3.722l6.493-6a5.375,5.375,0,0,0,1.129-1.36,2.47,2.47,0,0,0,.282-1.1,1.28,1.28,0,0,0-.449-1.04,1.987,1.987,0,0,0-1.3-.372,2.91,2.91,0,0,0-1.54.437,2.857,2.857,0,0,0-1.1,1.231l-4.567-2.284a7.5,7.5,0,0,1,3-3.041,10.7,10.7,0,0,1,8.545-.422A5.886,5.886,0,0,1,670,861.67a4.919,4.919,0,0,1,.924,2.951,6.292,6.292,0,0,1-.629,2.785,10.427,10.427,0,0,1-2.451,2.938l-2.566,2.336Z"/></g></g><g transform="translate(756.04 858.82)"><g fill="#075091"><path transform="translate(-805.22 -871.15)" d="m808.77 872.08v8.949h-1.661v-7.556h-1.893v-1.393z"/><path transform="translate(-806.53 -871.15)" d="M817.858,876.613a2.418,2.418,0,0,1,.652,1.727,2.642,2.642,0,0,1-.4,1.418,2.723,2.723,0,0,1-1.2,1.017,4.534,4.534,0,0,1-1.949.377,6.185,6.185,0,0,1-1.847-.276,4.731,4.731,0,0,1-1.515-.76l.716-1.292a3.618,3.618,0,0,0,1.183.646,4.432,4.432,0,0,0,1.438.237,2.33,2.33,0,0,0,1.387-.365,1.157,1.157,0,0,0,.505-.99,1.144,1.144,0,0,0-.48-.979,2.48,2.48,0,0,0-1.464-.351h-.818v-1.138l2.032-2.417h-4.065v-1.393h6.1v1.113l-2.174,2.582A3.014,3.014,0,0,1,817.858,876.613Z"/><path transform="translate(-808.66 -872.95)" d="M822.28,882.6a1.114,1.114,0,0,1-.006-1.528,1.067,1.067,0,1,1,.006,1.528Z"/><path transform="translate(-809.42 -872.42)" d="m825.63 878.21h6.393v1.048h-6.393z"/><path transform="translate(-811.18 -871.15)" d="m837.73 872.08v8.949h-1.661v-7.556h-1.892v-1.393z"/><path transform="translate(-812.53 -871.15)" d="M846.753,876.275a2.436,2.436,0,0,1,.908,2,2.66,2.66,0,0,1-1.585,2.493,4.47,4.47,0,0,1-1.956.384,6.245,6.245,0,0,1-1.854-.276,4.556,4.556,0,0,1-1.508-.76l.7-1.292a3.777,3.777,0,0,0,1.2.646,4.432,4.432,0,0,0,1.438.237,2.334,2.334,0,0,0,1.387-.365,1.261,1.261,0,0,0-.039-2.046,3.607,3.607,0,0,0-1.86-.351h-2.16l.46-4.871h5.254v1.393h-3.848l-.192,2.072h.857A4.408,4.408,0,0,1,846.753,876.275Z"/><path transform="translate(-814.63 -872.95)" d="M851.27,882.6a1.114,1.114,0,0,1-.006-1.528,1.049,1.049,0,0,1,1.8.767,1.054,1.054,0,0,1-1.79.761Z"/><path transform="translate(-816.49 -871.12)" d="M861.52,880.825a4.162,4.162,0,0,1-1.527-.781l.575-1.291a4.507,4.507,0,0,0,1.349.71,4.9,4.9,0,0,0,1.605.276,2.776,2.776,0,0,0,1.489-.32.968.968,0,0,0,.492-.843.816.816,0,0,0-.275-.633,1.915,1.915,0,0,0-.7-.39q-.422-.14-1.151-.32a13.515,13.515,0,0,1-1.655-.485,2.718,2.718,0,0,1-1.086-.761,2.045,2.045,0,0,1-.454-1.4,2.389,2.389,0,0,1,.4-1.349,2.725,2.725,0,0,1,1.215-.966,4.922,4.922,0,0,1,1.987-.357,6.418,6.418,0,0,1,1.611.2,4.461,4.461,0,0,1,1.368.588L866.244,874a5.165,5.165,0,0,0-1.227-.524,4.606,4.606,0,0,0-1.24-.179,2.59,2.59,0,0,0-1.464.333,1.027,1.027,0,0,0-.479.882.8.8,0,0,0,.275.627,1.979,1.979,0,0,0,.7.383q.422.14,1.15.319a12.214,12.214,0,0,1,1.637.48,2.808,2.808,0,0,1,1.093.761,2.006,2.006,0,0,1,.454,1.38,2.358,2.358,0,0,1-.4,1.343,2.733,2.733,0,0,1-1.221.959,4.957,4.957,0,0,1-1.993.358A6.851,6.851,0,0,1,861.52,880.825Z"/><path transform="translate(-818.66 -871.68)" d="m877.49 878.65h-5.356a1.858 1.858 0 0 0 0.735 1.2 2.409 2.409 0 0 0 1.476 0.441 2.488 2.488 0 0 0 1.854-0.742l0.857 0.985a2.894 2.894 0 0 1-1.163 0.831 4.617 4.617 0 0 1-3.567-0.167 3.21 3.21 0 0 1-1.326-1.25 3.506 3.506 0 0 1-0.467-1.808 3.581 3.581 0 0 1 0.453-1.8 3.221 3.221 0 0 1 1.26-1.246 3.672 3.672 0 0 1 1.816-0.448 3.583 3.583 0 0 1 1.783 0.442 3.128 3.128 0 0 1 1.228 1.241 3.76 3.76 0 0 1 0.441 1.847c2e-3 0.112-6e-3 0.271-0.024 0.474zm-4.723-2.268a1.905 1.905 0 0 0-0.646 1.208h3.873a1.881 1.881 0 0 0-0.626-1.2 1.9 1.9 0 0 0-1.3-0.461 1.928 1.928 0 0 0-1.301 0.453z"/><path transform="translate(-820.94 -871.68)" d="M887.194,875.085a3.137,3.137,0,0,1,1.233,1.227,3.973,3.973,0,0,1,0,3.662,3.119,3.119,0,0,1-1.233,1.234,3.622,3.622,0,0,1-1.784.434,2.756,2.756,0,0,1-2.186-.92v3.311h-1.6v-9.307h1.522v.9a2.474,2.474,0,0,1,.978-.729,3.32,3.32,0,0,1,1.285-.243A3.623,3.623,0,0,1,887.194,875.085Zm-.511,4.6a2.387,2.387,0,0,0,0-3.093,1.932,1.932,0,0,0-1.451-.589,2.057,2.057,0,0,0-1.036.263,1.9,1.9,0,0,0-.729.747,2.494,2.494,0,0,0,0,2.251,1.9,1.9,0,0,0,.729.747,2.057,2.057,0,0,0,1.036.262A1.932,1.932,0,0,0,886.683,879.687Z"/><path transform="translate(-823.06 -871.31)" d="M896.907,880.812a1.888,1.888,0,0,1-.684.345,3.1,3.1,0,0,1-.851.114,2.412,2.412,0,0,1-1.738-.588,2.262,2.262,0,0,1-.613-1.713v-3.286H891.9v-1.278h1.125v-1.56h1.6v1.56h1.828v1.278h-1.828v3.247a1.08,1.08,0,0,0,.243.761.91.91,0,0,0,.7.262,1.4,1.4,0,0,0,.9-.282Z"/><path transform="translate(-824.56 -871.68)" d="m906.19 878.65h-5.356a1.857 1.857 0 0 0 0.735 1.2 2.411 2.411 0 0 0 1.477 0.441 2.487 2.487 0 0 0 1.854-0.742l0.856 0.985a2.889 2.889 0 0 1-1.163 0.831 4.617 4.617 0 0 1-3.567-0.167 3.22 3.22 0 0 1-1.323-1.247 3.514 3.514 0 0 1-0.466-1.808 3.574 3.574 0 0 1 0.453-1.8 3.221 3.221 0 0 1 1.26-1.246 3.67 3.67 0 0 1 1.815-0.448 3.584 3.584 0 0 1 1.784 0.442 3.121 3.121 0 0 1 1.227 1.241 3.759 3.759 0 0 1 0.441 1.847c-2e-3 0.109-0.01 0.268-0.027 0.471zm-4.724-2.268a1.908 1.908 0 0 0-0.645 1.208h3.878a1.882 1.882 0 0 0-0.627-1.2 1.9 1.9 0 0 0-1.3-0.461 1.93 1.93 0 0 0-1.306 0.453z"/><path transform="translate(-826.85 -871.68)" d="M920.989,875.4a3.031,3.031,0,0,1,.755,2.244v3.912h-1.6v-3.707a2,2,0,0,0-.4-1.349,1.428,1.428,0,0,0-1.137-.454,1.668,1.668,0,0,0-1.291.531,2.164,2.164,0,0,0-.485,1.515v3.465h-1.6v-3.707a2,2,0,0,0-.4-1.349,1.428,1.428,0,0,0-1.137-.454,1.671,1.671,0,0,0-1.3.524,2.18,2.18,0,0,0-.48,1.521v3.465h-1.6v-6.827h1.522v.87a2.481,2.481,0,0,1,.959-.7,3.268,3.268,0,0,1,1.279-.243,3.081,3.081,0,0,1,1.361.288,2.209,2.209,0,0,1,.94.85,2.863,2.863,0,0,1,1.087-.838,3.531,3.531,0,0,1,1.471-.3A2.78,2.78,0,0,1,920.989,875.4Z"/><path transform="translate(-830.41 -871.02)" d="M933.214,874.416a3.133,3.133,0,0,1,1.233,1.227,3.967,3.967,0,0,1,0,3.662,3.114,3.114,0,0,1-1.233,1.234,3.621,3.621,0,0,1-1.783.434,3.284,3.284,0,0,1-1.285-.243,2.468,2.468,0,0,1-.978-.728v.882h-1.521V871.4h1.6v3.49a2.694,2.694,0,0,1,.966-.677,3.162,3.162,0,0,1,1.221-.23A3.622,3.622,0,0,1,933.214,874.416Zm-.511,4.6a2.387,2.387,0,0,0,0-3.093,1.929,1.929,0,0,0-1.45-.589,2.06,2.06,0,0,0-1.036.263,1.9,1.9,0,0,0-.728.747,2.493,2.493,0,0,0,0,2.251,1.89,1.89,0,0,0,.728.747,2.06,2.06,0,0,0,1.036.262A1.929,1.929,0,0,0,932.7,879.018Z"/><path transform="translate(-832.62 -871.68)" d="m945.31 878.65h-5.356a1.854 1.854 0 0 0 0.735 1.2 2.411 2.411 0 0 0 1.476 0.441 2.486 2.486 0 0 0 1.854-0.742l0.857 0.985a2.9 2.9 0 0 1-1.164 0.831 4.617 4.617 0 0 1-3.567-0.167 3.22 3.22 0 0 1-1.323-1.247 3.513 3.513 0 0 1-0.466-1.808 3.573 3.573 0 0 1 0.453-1.8 3.224 3.224 0 0 1 1.259-1.246 3.673 3.673 0 0 1 1.816-0.448 3.586 3.586 0 0 1 1.784 0.442 3.121 3.121 0 0 1 1.227 1.241 3.76 3.76 0 0 1 0.441 1.847c-1e-3 0.109-9e-3 0.268-0.026 0.471zm-4.724-2.268a1.908 1.908 0 0 0-0.645 1.208h3.873a1.882 1.882 0 0 0-0.627-1.2 1.9 1.9 0 0 0-1.3-0.461 1.927 1.927 0 0 0-1.301 0.453z"/><path transform="translate(-834.9 -871.68)" d="M953.392,874.65v1.522a2.045,2.045,0,0,0-.371-.038,1.931,1.931,0,0,0-1.457.543,2.166,2.166,0,0,0-.524,1.566v3.311h-1.6v-6.827h1.521v1A2.666,2.666,0,0,1,953.392,874.65Z"/><path transform="translate(-837.11 -871.12)" d="M967.137,879.584v1.407h-6.6v-1.113l3.554-3.375a3.876,3.876,0,0,0,.813-1,1.913,1.913,0,0,0,.211-.851,1.148,1.148,0,0,0-.422-.959,1.98,1.98,0,0,0-1.24-.332,2.5,2.5,0,0,0-2.1.933l-1.164-.9a3.438,3.438,0,0,1,1.413-1.093,4.9,4.9,0,0,1,1.988-.39,3.637,3.637,0,0,1,2.326.69,2.27,2.27,0,0,1,.87,1.879,3.129,3.129,0,0,1-.307,1.369,5.354,5.354,0,0,1-1.176,1.457l-2.391,2.275Z"/><path transform="translate(-839.22 -871.12)" d="M972.28,880.575a3.664,3.664,0,0,1-1.33-1.585,6.537,6.537,0,0,1,0-4.947,3.666,3.666,0,0,1,1.33-1.584,3.464,3.464,0,0,1,1.917-.544,3.5,3.5,0,0,1,1.924.544,3.658,3.658,0,0,1,1.337,1.584,6.547,6.547,0,0,1,0,4.947,3.656,3.656,0,0,1-1.337,1.585,3.5,3.5,0,0,1-1.924.544A3.464,3.464,0,0,1,972.28,880.575Zm3.433-1.693a5.309,5.309,0,0,0,0-4.73,1.832,1.832,0,0,0-3.017,0,5.309,5.309,0,0,0,0,4.73,1.832,1.832,0,0,0,3.017,0Z"/><path transform="translate(-841.39 -871.12)" d="M987.949,879.584v1.407h-6.6v-1.113l3.554-3.375a3.855,3.855,0,0,0,.812-1,1.913,1.913,0,0,0,.211-.851,1.15,1.15,0,0,0-.422-.959,1.982,1.982,0,0,0-1.241-.332,2.5,2.5,0,0,0-2.1.933l-1.164-.9a3.436,3.436,0,0,1,1.412-1.093,4.9,4.9,0,0,1,1.988-.39,3.639,3.639,0,0,1,2.327.69,2.272,2.272,0,0,1,.869,1.879,3.129,3.129,0,0,1-.306,1.369,5.345,5.345,0,0,1-1.177,1.457l-2.39,2.275Z"/><path transform="translate(-843.4 -871.12)" d="M997.687,879.584v1.407h-6.6v-1.113l3.553-3.375a3.877,3.877,0,0,0,.812-1,1.922,1.922,0,0,0,.211-.851,1.148,1.148,0,0,0-.422-.959,1.979,1.979,0,0,0-1.24-.332,2.5,2.5,0,0,0-2.1.933l-1.164-.9a3.441,3.441,0,0,1,1.412-1.093,4.9,4.9,0,0,1,1.988-.39,3.638,3.638,0,0,1,2.327.69,2.27,2.27,0,0,1,.87,1.879,3.129,3.129,0,0,1-.307,1.369,5.354,5.354,0,0,1-1.176,1.457l-2.391,2.275Z"/><path transform="translate(-845.55 -872.95)" d="M1002.969,881.077a1.039,1.039,0,0,1,.295.767,1.726,1.726,0,0,1-.058.428,6.07,6.07,0,0,1-.237.672l-.652,1.8h-1.035l.511-1.955a.925.925,0,0,1-.441-.365,1.057,1.057,0,0,1-.16-.582,1.036,1.036,0,0,1,.295-.767,1.082,1.082,0,0,1,1.483,0Z"/><path transform="translate(-847.6 -871.15)" d="m1011.1 872.08h1.661v7.543h4.679v1.406h-6.341z"/><path transform="translate(-849.04 -870.92)" d="M1018.143,882.958l.46-1.189a1.511,1.511,0,0,0,.933.268.855.855,0,0,0,.685-.275,1.215,1.215,0,0,0,.237-.812v-6.993h1.6v6.955a2.47,2.47,0,0,1-.627,1.789,2.31,2.31,0,0,1-1.751.652A2.514,2.514,0,0,1,1018.143,882.958Zm2.378-10.4a.943.943,0,0,1,0-1.368,1.024,1.024,0,0,1,.728-.275,1.056,1.056,0,0,1,.729.262.844.844,0,0,1,.294.658.965.965,0,0,1-.288.71.994.994,0,0,1-.735.287A1.021,1.021,0,0,1,1020.521,872.558Z"/><path transform="translate(-850.66 -871.7)" d="M1032.673,874.747v6.827h-1.521v-.87a2.535,2.535,0,0,1-.959.71,3.089,3.089,0,0,1-1.24.249,2.966,2.966,0,0,1-2.155-.76,3.006,3.006,0,0,1-.785-2.257v-3.9h1.6v3.682a1.977,1.977,0,0,0,.416,1.374,1.521,1.521,0,0,0,1.182.454,1.792,1.792,0,0,0,1.362-.53,2.131,2.131,0,0,0,.505-1.528v-3.452Z"/><path transform="translate(-853 -871.02)" d="M1042.977,874.416a3.14,3.14,0,0,1,1.234,1.227,3.973,3.973,0,0,1,0,3.662,3.122,3.122,0,0,1-1.234,1.234,3.621,3.621,0,0,1-1.783.434,3.285,3.285,0,0,1-1.285-.243,2.464,2.464,0,0,1-.979-.728v.882h-1.521V871.4h1.6v3.49a2.7,2.7,0,0,1,.965-.677,3.166,3.166,0,0,1,1.221-.23A3.622,3.622,0,0,1,1042.977,874.416Zm-.512,4.6a2.387,2.387,0,0,0,0-3.093,1.931,1.931,0,0,0-1.451-.589,2.05,2.05,0,0,0-1.035.263,1.893,1.893,0,0,0-.729.747,2.493,2.493,0,0,0,0,2.251,1.887,1.887,0,0,0,.729.747,2.05,2.05,0,0,0,1.035.262A1.931,1.931,0,0,0,1042.466,879.018Z"/><path transform="translate(-855.35 -871.02)" d="m1048.8 871.4h1.6v9.486h-1.6z"/><path transform="translate(-855.8 -870.92)" d="M1051.027,882.958l.46-1.189a1.515,1.515,0,0,0,.934.268.856.856,0,0,0,.685-.275,1.215,1.215,0,0,0,.236-.812v-6.993h1.6v6.955a2.474,2.474,0,0,1-.627,1.789,2.311,2.311,0,0,1-1.751.652A2.516,2.516,0,0,1,1051.027,882.958Zm2.378-10.4a.943.943,0,0,1,0-1.368,1.027,1.027,0,0,1,.728-.275,1.054,1.054,0,0,1,.729.262.842.842,0,0,1,.295.658.968.968,0,0,1-.288.71,1,1,0,0,1-.735.287A1.024,1.024,0,0,1,1053.4,872.558Z"/><path transform="translate(-857.31 -871.68)" d="M1063.753,875.373a2.791,2.791,0,0,1,.8,2.18v4h-1.508v-.831a1.86,1.86,0,0,1-.838.683,3.265,3.265,0,0,1-1.31.237,3.2,3.2,0,0,1-1.342-.262,2.072,2.072,0,0,1-.889-.728,1.848,1.848,0,0,1-.313-1.055,1.806,1.806,0,0,1,.684-1.476,3.4,3.4,0,0,1,2.155-.557h1.763v-.1a1.4,1.4,0,0,0-.428-1.1,1.847,1.847,0,0,0-1.271-.384,3.654,3.654,0,0,0-1.132.179,2.768,2.768,0,0,0-.94.5l-.627-1.163a3.875,3.875,0,0,1,1.291-.627,5.759,5.759,0,0,1,1.6-.218A3.327,3.327,0,0,1,1063.753,875.373Zm-1.457,4.833a1.5,1.5,0,0,0,.658-.787v-.793H1061.3q-1.381,0-1.38.909a.816.816,0,0,0,.345.69,1.579,1.579,0,0,0,.959.255A2.064,2.064,0,0,0,1062.3,880.205Z"/><path transform="translate(-859.52 -871.68)" d="m1075 875.4a2.975 2.975 0 0 1 0.78 2.236v3.912h-1.6v-3.707a1.912 1.912 0 0 0-0.422-1.349 1.557 1.557 0 0 0-1.2-0.454 1.846 1.846 0 0 0-1.394 0.531 2.116 2.116 0 0 0-0.511 1.528v3.452h-1.6v-6.827h1.522v0.882a2.508 2.508 0 0 1 1-0.716 3.6 3.6 0 0 1 1.355-0.243 2.85 2.85 0 0 1 2.07 0.755z"/><path transform="translate(-861.74 -871.68)" d="M1085.29,875.373a2.791,2.791,0,0,1,.8,2.18v4h-1.508v-.831a1.859,1.859,0,0,1-.838.683,3.265,3.265,0,0,1-1.31.237,3.2,3.2,0,0,1-1.342-.262,2.072,2.072,0,0,1-.889-.728,1.855,1.855,0,0,1-.313-1.055,1.806,1.806,0,0,1,.684-1.476,3.4,3.4,0,0,1,2.155-.557h1.764v-.1a1.4,1.4,0,0,0-.428-1.1,1.85,1.85,0,0,0-1.272-.384,3.658,3.658,0,0,0-1.132.179,2.754,2.754,0,0,0-.939.5l-.627-1.163a3.877,3.877,0,0,1,1.292-.627,5.758,5.758,0,0,1,1.6-.218A3.325,3.325,0,0,1,1085.29,875.373Zm-1.457,4.833a1.5,1.5,0,0,0,.659-.787v-.793h-1.65q-1.381,0-1.38.909a.816.816,0,0,0,.345.69,1.579,1.579,0,0,0,.959.255A2.065,2.065,0,0,0,1083.832,880.205Z"/><path transform="translate(-863.82 -872.95)" d="M1091.774,881.077a1.039,1.039,0,0,1,.295.767,1.687,1.687,0,0,1-.058.428,5.881,5.881,0,0,1-.237.672l-.651,1.8h-1.036l.511-1.955a.93.93,0,0,1-.442-.365,1.056,1.056,0,0,1-.16-.582,1.039,1.039,0,0,1,.294-.767,1.082,1.082,0,0,1,1.483,0Z"/><path transform="translate(-865.68 -871.12)" d="M1100.523,880.825a4.159,4.159,0,0,1-1.528-.781l.576-1.291a4.506,4.506,0,0,0,1.349.71,4.9,4.9,0,0,0,1.6.276,2.776,2.776,0,0,0,1.489-.32.969.969,0,0,0,.492-.843.818.818,0,0,0-.275-.633,1.931,1.931,0,0,0-.7-.39q-.422-.14-1.15-.32a13.532,13.532,0,0,1-1.656-.485,2.719,2.719,0,0,1-1.087-.761,2.049,2.049,0,0,1-.454-1.4,2.389,2.389,0,0,1,.4-1.349,2.731,2.731,0,0,1,1.214-.966,4.929,4.929,0,0,1,1.988-.357,6.408,6.408,0,0,1,1.611.2,4.461,4.461,0,0,1,1.368.588l-.524,1.291a5.15,5.15,0,0,0-1.227-.524,4.605,4.605,0,0,0-1.24-.179,2.59,2.59,0,0,0-1.464.333,1.028,1.028,0,0,0-.48.882.8.8,0,0,0,.275.627,1.993,1.993,0,0,0,.7.383q.423.14,1.151.319a12.243,12.243,0,0,1,1.637.48,2.813,2.813,0,0,1,1.093.761,2.006,2.006,0,0,1,.453,1.38,2.358,2.358,0,0,1-.4,1.343,2.731,2.731,0,0,1-1.221.959,4.961,4.961,0,0,1-1.994.358A6.847,6.847,0,0,1,1100.523,880.825Z"/><path transform="translate(-867.99 -871.02)" d="m1110.2 871.4h1.6v9.486h-1.6z"/><path transform="translate(-868.88 -871.68)" d="m1116.3 881.2a3.264 3.264 0 0 1-1.3-1.247 3.731 3.731 0 0 1 0-3.611 3.284 3.284 0 0 1 1.3-1.24 4.141 4.141 0 0 1 3.746 0 3.289 3.289 0 0 1 1.3 1.24 3.73 3.73 0 0 1 0 3.611 3.268 3.268 0 0 1-1.3 1.247 4.147 4.147 0 0 1-3.746 0zm3.324-1.509a2.369 2.369 0 0 0 0-3.093 1.954 1.954 0 0 0-1.457-0.589 1.93 1.93 0 0 0-1.451 0.589 2.384 2.384 0 0 0 0 3.093 1.929 1.929 0 0 0 1.451 0.589 1.953 1.953 0 0 0 1.457-0.593z"/><path transform="translate(-870.9 -871.7)" d="m1131.9 874.75-2.927 6.827h-1.65l-2.927-6.827h1.661l2.123 5.062 2.185-5.062z"/><path transform="translate(-872.98 -871.68)" d="m1141.5 878.65h-5.359a1.857 1.857 0 0 0 0.735 1.2 2.41 2.41 0 0 0 1.476 0.441 2.488 2.488 0 0 0 1.854-0.742l0.857 0.985a2.894 2.894 0 0 1-1.164 0.831 4.617 4.617 0 0 1-3.567-0.167 3.215 3.215 0 0 1-1.323-1.247 3.513 3.513 0 0 1-0.467-1.808 3.565 3.565 0 0 1 0.454-1.8 3.214 3.214 0 0 1 1.259-1.246 3.674 3.674 0 0 1 1.816-0.448 3.583 3.583 0 0 1 1.783 0.442 3.116 3.116 0 0 1 1.227 1.241 3.752 3.752 0 0 1 0.441 1.847c3e-3 0.109-6e-3 0.268-0.022 0.471zm-4.724-2.268a1.912 1.912 0 0 0-0.646 1.208h3.874a1.868 1.868 0 0 0-1.931-1.662 1.929 1.929 0 0 0-1.297 0.454z"/><path transform="translate(-875.27 -871.68)" d="M1151.54,875.405a2.975,2.975,0,0,1,.781,2.236v3.912h-1.6v-3.707a1.916,1.916,0,0,0-.422-1.349,1.56,1.56,0,0,0-1.2-.454,1.848,1.848,0,0,0-1.394.531,2.116,2.116,0,0,0-.511,1.528v3.452h-1.6v-6.827h1.521v.882a2.506,2.506,0,0,1,1-.716,3.6,3.6,0,0,1,1.355-.243A2.848,2.848,0,0,1,1151.54,875.405Z"/><path transform="translate(-877.55 -870.92)" d="M1157.013,872.558a.941.941,0,0,1,0-1.368,1.023,1.023,0,0,1,.728-.275,1.056,1.056,0,0,1,.729.262.846.846,0,0,1,.294.658.967.967,0,0,1-.287.71,1,1,0,0,1-.735.287A1.02,1.02,0,0,1,1157.013,872.558Zm-.077,1.4h1.6v6.827h-1.6Z"/><path transform="translate(-878.52 -871.68)" d="M1166.8,875.373a2.791,2.791,0,0,1,.8,2.18v4h-1.508v-.831a1.861,1.861,0,0,1-.838.683,3.267,3.267,0,0,1-1.311.237,3.193,3.193,0,0,1-1.341-.262,2.071,2.071,0,0,1-.889-.728,1.848,1.848,0,0,1-.314-1.055,1.8,1.8,0,0,1,.684-1.476,3.4,3.4,0,0,1,2.155-.557H1166v-.1a1.4,1.4,0,0,0-.428-1.1,1.847,1.847,0,0,0-1.271-.384,3.655,3.655,0,0,0-1.132.179,2.767,2.767,0,0,0-.94.5l-.626-1.163a3.857,3.857,0,0,1,1.291-.627,5.758,5.758,0,0,1,1.6-.218A3.328,3.328,0,0,1,1166.8,875.373Zm-1.457,4.833a1.5,1.5,0,0,0,.658-.787v-.793h-1.649q-1.381,0-1.38.909a.815.815,0,0,0,.345.69,1.58,1.58,0,0,0,.958.255A2.068,2.068,0,0,0,1165.345,880.205Z"/></g></g><g transform="translate(727.83 837.03)" fill="#075091"><path transform="translate(-769.82 -848.94)" d="m770.3 869.99h20.751v7h-15.477v3.557h-5.274z"/><path transform="translate(-769.7 -843.48)" d="m782.02 844.21a5.191 5.191 0 0 1 2.742-0.727 5.557 5.557 0 0 1 3.5 1.171 7.4 7.4 0 0 1 2.327 3.29 14.823 14.823 0 0 1 0 9.694 7.4 7.4 0 0 1-2.327 3.29 5.547 5.547 0 0 1-3.5 1.171 5.192 5.192 0 0 1-2.742-0.726 6.15 6.15 0 0 1-2.031-2.06 5.025 5.025 0 0 1-4.091 2.045 5.164 5.164 0 0 1-3.261-1.082 6.991 6.991 0 0 1-2.164-3.024 13.3 13.3 0 0 1 0-8.923 6.993 6.993 0 0 1 2.164-3.023 5.164 5.164 0 0 1 3.261-1.082 5.025 5.025 0 0 1 4.091 2.045 6.141 6.141 0 0 1 2.031-2.059zm-7.13 9.783a2.083 2.083 0 0 0 2.609 0 1.758 1.758 0 0 0 0-2.4 2.08 2.08 0 0 0-2.609 0 1.758 1.758 0 0 0 0 2.4zm11.205-2.846a2.256 2.256 0 0 0-3.142 0 2.578 2.578 0 0 0 0 3.29 2.254 2.254 0 0 0 3.142 0 2.578 2.578 0 0 0 0-3.29z"/></g><g transform="translate(757.11 820.73)"><g fill="#075091"><path transform="translate(-806.56 -822.99)" d="m806.56 823.16h2.284v9.684h-2.284z"/><path transform="translate(-807.76 -822.99)" d="m821.44 823.16v9.684h-1.876l-4.921-5.879v5.879h-2.256v-9.684h1.89l4.906 5.879v-5.879z"/><path transform="translate(-810.42 -822.99)" d="m828.48 824.99h-3.159v-1.826h8.6v1.826h-3.159v7.858h-2.284z"/><path transform="translate(-812.97 -822.99)" d="m845.34 831.04v1.8h-7.641v-9.685h7.458v1.8h-5.188v2.1h4.583v1.74h-4.583v2.24z"/><path transform="translate(-815.42 -822.99)" d="M855.9,832.844l-1.9-2.7h-2.1v2.7h-2.284V823.16h4.272a5.573,5.573,0,0,1,2.277.429,3.37,3.37,0,0,1,1.488,1.217,3.311,3.311,0,0,1,.522,1.868,3.24,3.24,0,0,1-.528,1.861,3.347,3.347,0,0,1-1.5,1.2l2.214,3.112Zm-.578-7.422a2.431,2.431,0,0,0-1.565-.436H851.9v3.375h1.862a2.4,2.4,0,0,0,1.565-.443,1.721,1.721,0,0,0,0-2.5Z"/><path transform="translate(-818.11 -822.99)" d="m871.71 823.16v9.684h-1.875l-4.921-5.879v5.879h-2.255v-9.684h1.889l4.906 5.879v-5.879z"/><path transform="translate(-820.72 -822.99)" d="m883.17 830.77h-4.583l-0.874 2.075h-2.34l4.4-9.684h2.256l4.413 9.684h-2.4zm-0.72-1.7-1.565-3.707-1.565 3.707z"/><path transform="translate(-823.44 -822.99)" d="m891.74 824.99h-3.159v-1.826h8.6v1.826h-3.159v7.858h-2.284z"/><path transform="translate(-825.99 -822.99)" d="m900.95 823.16h2.284v9.684h-2.284z"/><path transform="translate(-827.02 -822.95)" d="m908.62 832.32a4.875 4.875 0 0 1-1.931-1.792 5.065 5.065 0 0 1 0-5.132 4.868 4.868 0 0 1 1.931-1.791 6.208 6.208 0 0 1 5.533 0 4.939 4.939 0 0 1 1.932 1.791 5.026 5.026 0 0 1 0 5.132 4.946 4.946 0 0 1-1.932 1.792 6.208 6.208 0 0 1-5.533 0zm4.349-1.654a2.856 2.856 0 0 0 1.107-1.1 3.4 3.4 0 0 0 0-3.209 2.857 2.857 0 0 0-1.107-1.1 3.349 3.349 0 0 0-3.158 0 2.857 2.857 0 0 0-1.107 1.1 3.4 3.4 0 0 0 0 3.209 2.855 2.855 0 0 0 1.107 1.1 3.355 3.355 0 0 0 3.158 0z"/><path transform="translate(-830.27 -822.99)" d="m930.81 823.16v9.684h-1.876l-4.92-5.879v5.879h-2.256v-9.684h1.889l4.907 5.879v-5.879z"/><path transform="translate(-832.88 -822.99)" d="m942.27 830.77h-4.583l-0.874 2.075h-2.341l4.4-9.684h2.256l4.413 9.684h-2.4zm-0.72-1.7-1.565-3.707-1.565 3.707z"/><path transform="translate(-836.02 -822.99)" d="M949.7,823.16h2.284v7.858h4.949v1.826H949.7Z"/><path transform="translate(-839.1 -822.95)" d="M967.282,832.323a4.921,4.921,0,0,1,0-8.729,6.222,6.222,0,0,1,5.061-.2,4.64,4.64,0,0,1,1.742,1.272l-1.466,1.329a3.18,3.18,0,0,0-2.482-1.135,3.344,3.344,0,0,0-1.635.4,2.837,2.837,0,0,0-1.121,1.1,3.405,3.405,0,0,0,0,3.209,2.835,2.835,0,0,0,1.121,1.1,3.343,3.343,0,0,0,1.635.395,3.162,3.162,0,0,0,2.482-1.148l1.466,1.329a4.562,4.562,0,0,1-1.749,1.286,5.893,5.893,0,0,1-2.325.443A5.757,5.757,0,0,1,967.282,832.323Z"/><path transform="translate(-841.72 -822.95)" d="m980.04 832.32a4.88 4.88 0 0 1-1.932-1.792 5.065 5.065 0 0 1 0-5.132 4.873 4.873 0 0 1 1.932-1.791 6.21 6.21 0 0 1 5.534 0 4.938 4.938 0 0 1 1.932 1.791 5.021 5.021 0 0 1 0 5.132 4.945 4.945 0 0 1-1.932 1.792 6.21 6.21 0 0 1-5.534 0zm4.35-1.654a2.86 2.86 0 0 0 1.107-1.1 3.4 3.4 0 0 0 0-3.209 2.862 2.862 0 0 0-1.107-1.1 3.351 3.351 0 0 0-3.159 0 2.857 2.857 0 0 0-1.107 1.1 3.4 3.4 0 0 0 0 3.209 2.856 2.856 0 0 0 1.107 1.1 3.357 3.357 0 0 0 3.159 0z"/><path transform="translate(-844.97 -822.99)" d="m1002.2 823.16v9.684h-1.875l-4.921-5.879v5.879h-2.256v-9.684h1.889l4.906 5.879v-5.879z"/><path transform="translate(-847.92 -822.99)" d="m1009.8 824.96v2.558h4.568v1.8h-4.568v3.528h-2.284v-9.685h7.459v1.8z"/><path transform="translate(-850.25 -822.99)" d="m1026.5 831.04v1.8h-7.642v-9.685h7.459v1.8h-5.189v2.1h4.582v1.74h-4.582v2.24z"/><path transform="translate(-852.7 -822.99)" d="M1037.067,832.844l-1.9-2.7h-2.1v2.7h-2.284V823.16h4.272a5.572,5.572,0,0,1,2.277.429,3.37,3.37,0,0,1,1.487,1.217,3.311,3.311,0,0,1,.522,1.868,3.246,3.246,0,0,1-.528,1.861,3.352,3.352,0,0,1-1.5,1.2l2.213,3.112Zm-.578-7.422a2.431,2.431,0,0,0-1.565-.436h-1.861v3.375h1.861a2.4,2.4,0,0,0,1.565-.443,1.721,1.721,0,0,0,0-2.5Z"/><path transform="translate(-855.39 -822.99)" d="m1051.5 831.04v1.8h-7.642v-9.685h7.459v1.8h-5.185v2.1h4.582v1.74h-4.582v2.24z"/><path transform="translate(-857.84 -822.99)" d="m1064.8 823.16v9.684h-1.876l-4.921-5.879v5.879h-2.255v-9.684h1.889l4.907 5.879v-5.879z"/><path transform="translate(-860.63 -822.95)" d="m1071.9 832.32a4.921 4.921 0 0 1 0-8.729 6.222 6.222 0 0 1 5.062-0.2 4.648 4.648 0 0 1 1.742 1.272l-1.467 1.329a3.178 3.178 0 0 0-2.482-1.135 3.341 3.341 0 0 0-1.634 0.4 2.831 2.831 0 0 0-1.121 1.1 3.4 3.4 0 0 0 0 3.209 2.829 2.829 0 0 0 1.121 1.1 3.34 3.34 0 0 0 1.634 0.395 3.16 3.16 0 0 0 2.482-1.148l1.467 1.329a4.57 4.57 0 0 1-1.749 1.286 5.9 5.9 0 0 1-2.326 0.443 5.756 5.756 0 0 1-2.729-0.651z"/><path transform="translate(-863.47 -822.99)" d="m1090.7 831.04v1.8h-7.638v-9.685h7.458v1.8h-5.189v2.1h4.583v1.74h-4.583v2.24z"/><path transform="translate(-866.8 -822.95)" d="m1101.9 832.32a4.879 4.879 0 0 1-1.932-1.792 5.065 5.065 0 0 1 0-5.132 4.872 4.872 0 0 1 1.932-1.791 6.21 6.21 0 0 1 5.534 0 4.938 4.938 0 0 1 1.932 1.791 5.021 5.021 0 0 1 0 5.132 4.945 4.945 0 0 1-1.932 1.792 6.21 6.21 0 0 1-5.534 0zm4.35-1.654a2.86 2.86 0 0 0 1.107-1.1 3.4 3.4 0 0 0 0-3.209 2.862 2.862 0 0 0-1.107-1.1 3.351 3.351 0 0 0-3.158 0 2.857 2.857 0 0 0-1.107 1.1 3.4 3.4 0 0 0 0 3.209 2.855 2.855 0 0 0 1.107 1.1 3.357 3.357 0 0 0 3.158 0z"/><path transform="translate(-870.04 -822.99)" d="m1124.1 823.16v9.684h-1.875l-4.922-5.879v5.879h-2.255v-9.684h1.889l4.906 5.879v-5.879z"/><path transform="translate(-873.74 -822.99)" d="m1136.1 824.99h-3.159v-1.826h8.6v1.826h-3.159v7.858h-2.284z"/><path transform="translate(-876.28 -822.99)" d="m1154.4 823.16v9.684h-2.284v-3.97h-4.484v3.97h-2.283v-9.684h2.283v3.819h4.484v-3.819z"/><path transform="translate(-879.24 -822.99)" d="m1167.3 831.04v1.8h-7.64v-9.685h7.459v1.8h-5.188v2.1h4.582v1.74h-4.582v2.24z"/></g></g><g transform="translate(756.99 838.5)"><g fill="#075091"><path transform="translate(-806.41 -845.41)" d="M817.176,855.359v3.292H806.414V845.706h10.522V849H810.7v1.516h5.474v3.143H810.7v1.7Z"/><path transform="translate(-809.63 -845.41)" d="M823.7,857.339a5.985,5.985,0,0,1-1.664-4.513v-7.12H826.4V852.7a3.362,3.362,0,0,0,.508,2.071,1.993,1.993,0,0,0,2.94,0,3.361,3.361,0,0,0,.509-2.071v-6.991h4.29v7.12a5.985,5.985,0,0,1-1.665,4.513,7.5,7.5,0,0,1-9.283,0Z"/><path transform="translate(-813.43 -845.41)" d="M846.073,855.4H844.89v3.255h-4.364V845.706h6.232a7.655,7.655,0,0,1,3.125.592,4.784,4.784,0,0,1,2.145,6.713,4.447,4.447,0,0,1-1.812,1.646l2.718,3.994h-4.66Zm1.739-5.926a1.94,1.94,0,0,0-1.331-.4H844.89V852.1h1.591a1.94,1.94,0,0,0,1.331-.4,1.633,1.633,0,0,0,0-2.238Z"/><path transform="translate(-816.89 -845.33)" d="m860.86 858a6.637 6.637 0 0 1 0-11.8 8.545 8.545 0 0 1 7.508 0 6.637 6.637 0 0 1 0 11.8 8.538 8.538 0 0 1-7.508 0zm5.224-3.06a2.852 2.852 0 0 0 1.045-1.129 3.961 3.961 0 0 0 0-3.421 2.85 2.85 0 0 0-1.045-1.128 2.915 2.915 0 0 0-2.94 0 2.851 2.851 0 0 0-1.045 1.128 3.962 3.962 0 0 0 0 3.421 2.853 2.853 0 0 0 1.045 1.129 2.92 2.92 0 0 0 2.94 0z"/><path transform="translate(-821.11 -845.41)" d="m887.16 846.3a4.663 4.663 0 0 1 0 8.581 7.641 7.641 0 0 1-3.125 0.592h-1.868v3.181h-4.369v-12.948h6.232a7.655 7.655 0 0 1 3.13 0.594zm-2.071 5.41a1.632 1.632 0 0 0 0-2.238 1.941 1.941 0 0 0-1.331-0.4h-1.591v3.028h1.591a1.94 1.94 0 0 0 1.331-0.392z"/><path transform="translate(-824.64 -845.41)" d="m905.73 855.36v3.292h-10.763v-12.945h10.522v3.294h-6.232v1.516h5.474v3.143h-5.474v1.7z"/><path transform="translate(-827.52 -845.41)" d="m919.19 856.4h-4.918l-0.87 2.256h-4.438l5.659-12.946h4.29l5.659 12.946h-4.512zm-1.2-3.143-1.259-3.257-1.258 3.255z"/><path transform="translate(-831.76 -845.41)" d="m942.35 845.71v12.946h-3.587l-4.919-5.88v5.88h-4.254v-12.946h3.588l4.919 5.881v-5.881z"/><path transform="translate(-837.09 -845.41)" d="M966.245,855.359v3.292H955.482V845.706H966V849h-6.231v1.516h5.474v3.143h-5.474v1.7Z"/><path transform="translate(-840.34 -845.41)" d="m984.01 845.71v12.946h-3.587l-4.919-5.88v5.88h-4.254v-12.946h3.588l4.918 5.881v-5.881z"/><path transform="translate(-844.21 -845.41)" d="m1000.8 855.36v3.292h-10.762v-12.945h10.522v3.294h-6.232v1.516h5.474v3.143h-5.474v1.7z"/><path transform="translate(-847.45 -845.41)" d="M1011.372,855.4h-1.184v3.255h-4.364V845.706h6.232a7.65,7.65,0,0,1,3.125.592,4.784,4.784,0,0,1,2.146,6.713,4.453,4.453,0,0,1-1.813,1.646l2.719,3.994h-4.66Zm1.739-5.926a1.943,1.943,0,0,0-1.332-.4h-1.591V852.1h1.591a1.943,1.943,0,0,0,1.332-.4,1.632,1.632,0,0,0,0-2.238Z"/><path transform="translate(-850.91 -845.33)" d="M1031.693,851.751h3.791v5.474a8.8,8.8,0,0,1-2.663,1.221,11,11,0,0,1-2.977.426,7.9,7.9,0,0,1-3.717-.86,6.429,6.429,0,0,1-2.58-2.4,7.037,7.037,0,0,1,0-7.01,6.379,6.379,0,0,1,2.607-2.4,8.141,8.141,0,0,1,3.782-.86,8.687,8.687,0,0,1,3.412.638,6.416,6.416,0,0,1,2.506,1.859l-2.792,2.459a3.712,3.712,0,0,0-2.9-1.424,3.059,3.059,0,0,0-2.293.87,3.238,3.238,0,0,0-.851,2.367,3.274,3.274,0,0,0,.842,2.348,2.947,2.947,0,0,0,2.247.888,4.112,4.112,0,0,0,1.591-.315Z"/><path transform="translate(-854.34 -845.41)" d="m1048.6 853.96v4.7h-4.364v-4.755l-4.882-8.192h4.6l2.646 4.476 2.663-4.476h4.216z"/><path transform="translate(-859.62 -845.41)" d="m1076.5 858.65-0.036-5.9-2.811 4.734h-1.924l-2.811-4.531v5.7h-3.977v-12.948h3.587l4.216 6.9 4.106-6.9h3.587l0.037 12.946z"/><path transform="translate(-863.85 -845.41)" d="m1095.7 856.4h-4.919l-0.87 2.256h-4.438l5.659-12.946h4.29l5.659 12.946h-4.513zm-1.2-3.143-1.261-3.257-1.257 3.255z"/><path transform="translate(-868.1 -845.41)" d="M1111.682,855.4H1110.5v3.255h-4.364V845.706h6.231a7.653,7.653,0,0,1,3.126.592,4.784,4.784,0,0,1,2.145,6.713,4.452,4.452,0,0,1-1.812,1.646l2.719,3.994h-4.66Zm1.74-5.926a1.943,1.943,0,0,0-1.332-.4H1110.5V852.1h1.591a1.943,1.943,0,0,0,1.332-.4,1.635,1.635,0,0,0,0-2.238Z"/><path transform="translate(-871.68 -845.41)" d="m1128.8 854.36-0.98 1.091v3.2h-4.291v-12.946h4.291v4.7l4.253-4.7h4.753l-5.177 5.7 5.437 7.25h-5.05z"/><path transform="translate(-875.37 -845.41)" d="M1152.244,855.359v3.292h-10.763V845.706H1152V849h-6.231v1.516h5.474v3.143h-5.474v1.7Z"/><path transform="translate(-878.36 -845.41)" d="m1159.8 849.09h-3.791v-3.385h11.946v3.385h-3.791v9.561h-4.364z"/></g></g><g transform="translate(728.73 820.87)"><g transform="translate(0)" fill="#075091"><path transform="translate(-770.82 -823.61)" d="M777.454,836.72a2.487,2.487,0,0,1-.914.508,3.667,3.667,0,0,1-1.136.176,2.572,2.572,0,0,1-2.843-2.824v-5.872h-1.736V827.6h1.736v-2.123h1.311V827.6h2.954v1.108h-2.954v5.8a1.834,1.834,0,0,0,.434,1.321,1.645,1.645,0,0,0,1.246.452,2.423,2.423,0,0,0,.785-.129,1.946,1.946,0,0,0,.655-.369Z"/><path transform="translate(-773.2 -823.13)" d="M790.213,828.1a4.145,4.145,0,0,1,1.08,3.093v5.632h-1.311v-5.5a3.216,3.216,0,0,0-.757-2.308,2.841,2.841,0,0,0-2.16-.794,3.322,3.322,0,0,0-2.483.932,3.523,3.523,0,0,0-.914,2.576v5.1h-1.311v-13.7h1.311v5.687a3.557,3.557,0,0,1,1.477-1.311,4.853,4.853,0,0,1,2.16-.461A3.968,3.968,0,0,1,790.213,828.1Z"/></g></g></g></svg>
