<?xml version="1.0" encoding="UTF-8"?> <svg xmlns="http://www.w3.org/2000/svg" id="6c8c2dd7-05af-4008-a843-79b2621279ae" width="340" height="148" data-name="svg2" version="1.1" viewBox="0 0 340 148"><title>IdeazLogo</title><g id="6ecbe2fd-d7b1-43fc-97c6-ee28da1eae4c" transform="matrix(1.1905 0 0 1.1905 67.304 43.777)" stroke-width=".84" data-name="g10"><g id="80e5c4e7-847c-4da6-b410-94e1d6486f4c" stroke-width=".40401" data-name="g4484-9"><path d="m4.5 46.367h9.983v-41.98h-9.983z" fill="#3d8195" data-name="path48-3-2"></path><path id="b4c6b948-861c-4ad3-abef-fa12457bb28e" d="m39.986 46.313a12.64 12.64 0 0 0 2.059-0.276 21.1 21.1 0 0 0 14.37-30.174c-3.501-6.877-9.229-10.763-16.563-11.244-4.252-0.278-8.618-0.242-12.834-0.208-1.082 9e-3 -2.163 0.018-3.244 0.021-0.421 0-0.831 5e-3 -1.265 5e-3v8.427h13.111c0.429 0 0.858 0.026 1.285 0.065h5e-3c3.951 0.351 7.2 2.106 9 4.9a13.605 13.605 0 0 1 0.362 14.69c-3.1 5.282-8.421 5.7-13.225 5.417l-0.426-0.025v-16.595h-10.111v25.051h3.8c4.133 5e-3 8.4 5e-3 12.589-0.013 0.3 0 0.79-0.019 1.09-0.04" fill="#e4ac36" data-name="path52-6-0"></path><g fill="#69479c"><path d="m113.05 15.858 3.523 10.535 1.072 3.038h10.623c-1.194-3.166-2.634-6.96-3.89-10.275-1.8-4.746-3.612-9.534-5.3-14.044-0.118-0.315-0.207-0.556-0.269-0.724h-11.41l-0.365 0.859-9.293 24.184h10.711l0.569-1.773z" data-name="path56-7-2"></path><path d="m92.648 42.684c-0.359 0.934-0.7 1.874-1.06 2.846-0.1 0.275-0.2 0.552-0.305 0.832h1.842c2.926 0 6.227 7e-3 8.931-0.022l2.134-5.475 1.1-3h-10.779c-0.362 0.94-0.677 1.753-0.979 2.531s-0.582 1.5-0.884 2.285" data-name="path60-5-3"></path><path d="m123.7 46.355c2.776 0.016 6.183 0.013 8.942 9e-3h1.941l-0.2-0.555c-0.284-0.772-0.549-1.495-0.82-2.215-0.4-1.063-0.755-2.013-1.109-2.961-0.332-0.892-0.664-1.782-1.033-2.763h-10.78l1.746 5.018c0.391 1.061 0.76 2.023 1.127 2.93l0.054 0.134-7e-3 0.033 0.141 0.371z" data-name="path64-3-7"></path></g><path id="4a4d5f3f-5d9b-4b86-9f91-e7489443648c" d="m77.093 21.31c0-1.216-0.013-2.552-0.024-3.952s-0.024-2.81-0.024-4.033v-0.453h12.54l3.3-8.438h-26.141v41.953h16.51l3.163-8.521h-9.385v-8.435h9.734l2.684-8.12h-12.357z" fill="#5a9842" data-name="path68-5-5"></path><path d="m168.03 46.367v-8.409h-16.474l0.434-0.693c1.156-1.643 14.893-22.417 16.04-24.152v-8.725h-33.805l3.067 8.408h18.8l-16.56 24.953 3.081 8.618h25.419z" fill="#cc4561" data-name="path72-6-9"></path></g></g></svg> 