<?xml version="1.0" encoding="UTF-8"?> <svg xmlns="http://www.w3.org/2000/svg" width="340" height="148" version="1.1" viewBox="0 0 340 148" xml:space="preserve"> <style type="text/css"> .st0{fill:#1156A3;} </style> <g transform="matrix(1.0173,0,0,1.0173,-2.4313,-1.0682)" stroke-width=".983"> <polygon class="st0" points="91.05 52.02 91.05 64.52 97.48 64.52 97.48 65.69 89.71 65.69 89.71 52.02"></polygon> <path class="st0" d="m108.62 53.56c-0.5 1.14-0.98 2.29-1.45 3.46s-0.95 2.43-1.46 3.78h5.84c-0.51-1.35-1-2.62-1.47-3.79-0.48-1.17-0.97-2.32-1.46-3.45m4.7 12.13c-0.26-0.67-0.5-1.32-0.72-1.94s-0.43-1.22-0.63-1.81h-6.68c-0.23 0.59-0.45 1.2-0.67 1.82s-0.45 1.26-0.69 1.93h-1.4c0.52-1.42 1.01-2.75 1.47-3.98s0.91-2.39 1.36-3.49c0.44-1.1 0.88-2.15 1.32-3.16s0.9-2.03 1.38-3.04h1.18c0.48 1.01 0.94 2.03 1.37 3.04s0.87 2.07 1.32 3.16c0.45 1.1 0.9 2.26 1.35 3.49 0.46 1.23 0.96 2.56 1.51 3.98z"></path> <path class="st0" d="m122.04 59.12v5.4c0.2 0.03 0.49 0.06 0.89 0.09 0.39 0.03 0.8 0.05 1.2 0.05 0.61 0 1.19-0.04 1.77-0.12 0.57-0.08 1.08-0.23 1.51-0.44s0.78-0.5 1.05-0.87c0.26-0.37 0.39-0.85 0.39-1.43 0-0.53-0.09-0.97-0.28-1.32-0.18-0.35-0.45-0.63-0.79-0.83-0.34-0.21-0.76-0.35-1.25-0.43s-1.04-0.12-1.65-0.12h-2.84zm0-1.14h2.6c0.49 0 0.95-0.04 1.38-0.11s0.81-0.2 1.13-0.39 0.58-0.45 0.76-0.77 0.28-0.73 0.28-1.23c0-0.44-0.1-0.82-0.3-1.13s-0.48-0.56-0.84-0.76-0.79-0.34-1.29-0.42c-0.5-0.09-1.05-0.13-1.66-0.13-0.49 0-0.9 0.01-1.23 0.04-0.34 0.03-0.62 0.06-0.84 0.1v4.8zm1.94 7.83c-0.22 0-0.48-0.01-0.78-0.03s-0.6-0.05-0.91-0.08-0.6-0.07-0.88-0.12-0.51-0.1-0.71-0.15v-13.16c0.24-0.07 0.5-0.12 0.79-0.17s0.59-0.09 0.9-0.12 0.61-0.06 0.91-0.07 0.57-0.02 0.82-0.02c0.74 0 1.44 0.06 2.1 0.18s1.25 0.32 1.75 0.59c0.5 0.28 0.9 0.64 1.19 1.09s0.44 1.01 0.44 1.68c0 0.74-0.19 1.36-0.56 1.88s-0.88 0.88-1.51 1.07c0.4 0.09 0.76 0.22 1.09 0.4 0.33 0.17 0.62 0.39 0.87 0.66s0.44 0.6 0.58 0.99 0.21 0.85 0.21 1.39c0 1.29-0.51 2.28-1.54 2.95-1.03 0.7-2.62 1.04-4.76 1.04"></path> <path class="st0" d="m147.93 58.84c0-0.92-0.12-1.75-0.35-2.48-0.24-0.73-0.57-1.35-1.01-1.86-0.43-0.51-0.96-0.9-1.57-1.17s-1.3-0.4-2.06-0.4-1.45 0.14-2.06 0.4c-0.61 0.27-1.13 0.66-1.57 1.17-0.43 0.51-0.77 1.13-1.01 1.86s-0.35 1.56-0.35 2.48 0.12 1.75 0.35 2.48c0.24 0.73 0.57 1.35 1.01 1.86s0.96 0.91 1.57 1.18c0.61 0.28 1.3 0.41 2.06 0.41s1.45-0.14 2.06-0.41c0.61-0.28 1.13-0.67 1.57-1.18 0.43-0.51 0.77-1.13 1.01-1.86 0.23-0.73 0.35-1.56 0.35-2.48m1.42 0c0 1.17-0.17 2.2-0.51 3.1-0.34 0.89-0.81 1.64-1.39 2.24-0.59 0.6-1.27 1.05-2.04 1.35-0.78 0.3-1.6 0.45-2.47 0.45s-1.69-0.15-2.47-0.45-1.46-0.75-2.04-1.35c-0.59-0.6-1.05-1.34-1.39-2.24-0.34-0.89-0.51-1.93-0.51-3.1s0.17-2.2 0.51-3.09 0.81-1.63 1.39-2.23c0.59-0.6 1.27-1.05 2.04-1.35 0.78-0.3 1.6-0.45 2.47-0.45s1.69 0.15 2.47 0.45 1.46 0.75 2.04 1.35c0.59 0.6 1.05 1.34 1.39 2.23s0.51 1.92 0.51 3.09"></path> <path class="st0" d="m159.88 53.06c-0.5 0-0.94 0.02-1.31 0.05s-0.69 0.06-0.94 0.09v5.82h1.85c0.62 0 1.2-0.03 1.76-0.09 0.55-0.06 1.03-0.19 1.44-0.39s0.73-0.5 0.97-0.88 0.35-0.9 0.35-1.56c0-0.61-0.12-1.11-0.35-1.5-0.24-0.4-0.55-0.71-0.93-0.94s-0.82-0.39-1.31-0.47-1-0.13-1.53-0.13m5.53 3.06c0 1.03-0.27 1.83-0.81 2.43-0.54 0.59-1.25 1.02-2.13 1.28 0.21 0.26 0.48 0.62 0.82 1.07s0.68 0.94 1.04 1.47 0.7 1.09 1.05 1.67c0.34 0.58 0.63 1.13 0.87 1.66h-1.44c-0.28-0.53-0.57-1.05-0.9-1.58-0.32-0.53-0.65-1.04-0.99-1.53s-0.66-0.95-0.98-1.37-0.59-0.79-0.83-1.11c-0.42 0.04-0.84 0.06-1.26 0.06h-2.21v5.52h-1.34v-13.42c0.47-0.13 1.03-0.23 1.67-0.29s1.23-0.09 1.77-0.09c1.88 0 3.3 0.35 4.25 1.07 0.94 0.71 1.42 1.77 1.42 3.16"></path> <path class="st0" d="m177.49 53.56c-0.5 1.14-0.98 2.29-1.45 3.46s-0.95 2.43-1.46 3.78h5.84c-0.51-1.35-1-2.62-1.47-3.79-0.48-1.17-0.97-2.32-1.46-3.45m4.7 12.13c-0.26-0.67-0.5-1.32-0.72-1.94s-0.43-1.22-0.63-1.81h-6.68c-0.23 0.59-0.45 1.2-0.67 1.82s-0.45 1.26-0.69 1.93h-1.4c0.52-1.42 1.01-2.75 1.47-3.98s0.91-2.39 1.36-3.49c0.44-1.1 0.88-2.15 1.32-3.16s0.9-2.03 1.38-3.04h1.18c0.48 1.01 0.94 2.03 1.37 3.04s0.87 2.07 1.32 3.16c0.45 1.1 0.9 2.26 1.35 3.49 0.46 1.23 0.96 2.56 1.51 3.98z"></path> <polygon class="st0" points="197.23 52.02 197.23 53.18 192.85 53.18 192.85 65.69 191.51 65.69 191.51 53.18 187.13 53.18 187.13 52.02"></polygon> <path class="st0" d="m213.84 58.84c0-0.92-0.12-1.75-0.35-2.48-0.24-0.73-0.57-1.35-1.01-1.86-0.43-0.51-0.96-0.9-1.57-1.17s-1.3-0.4-2.06-0.4-1.45 0.14-2.06 0.4c-0.61 0.27-1.13 0.66-1.57 1.17-0.43 0.51-0.77 1.13-1.01 1.86s-0.35 1.56-0.35 2.48 0.12 1.75 0.35 2.48c0.24 0.73 0.57 1.35 1.01 1.86 0.43 0.51 0.96 0.91 1.57 1.18 0.61 0.28 1.3 0.41 2.06 0.41s1.45-0.14 2.06-0.41c0.61-0.28 1.13-0.67 1.57-1.18 0.43-0.51 0.77-1.13 1.01-1.86 0.23-0.73 0.35-1.56 0.35-2.48m1.42 0c0 1.17-0.17 2.2-0.51 3.1-0.34 0.89-0.81 1.64-1.39 2.24-0.59 0.6-1.27 1.05-2.04 1.35-0.78 0.3-1.6 0.45-2.47 0.45s-1.69-0.15-2.47-0.45-1.46-0.75-2.04-1.35c-0.59-0.6-1.05-1.34-1.39-2.24-0.34-0.89-0.51-1.93-0.51-3.1s0.17-2.2 0.51-3.09 0.81-1.63 1.39-2.23c0.59-0.6 1.27-1.05 2.04-1.35 0.78-0.3 1.6-0.45 2.47-0.45s1.69 0.15 2.47 0.45 1.46 0.75 2.04 1.35c0.59 0.6 1.05 1.34 1.39 2.23s0.51 1.92 0.51 3.09"></path> <path class="st0" d="m225.79 53.06c-0.5 0-0.94 0.02-1.31 0.05s-0.69 0.06-0.94 0.09v5.82h1.85c0.62 0 1.2-0.03 1.76-0.09 0.55-0.06 1.03-0.19 1.44-0.39s0.73-0.5 0.97-0.88 0.35-0.9 0.35-1.56c0-0.61-0.12-1.11-0.35-1.5-0.24-0.4-0.55-0.71-0.93-0.94s-0.82-0.39-1.31-0.47-1-0.13-1.53-0.13m5.53 3.06c0 1.03-0.27 1.83-0.81 2.43-0.54 0.59-1.25 1.02-2.13 1.28 0.21 0.26 0.48 0.62 0.82 1.07s0.68 0.94 1.04 1.47 0.7 1.09 1.05 1.67c0.34 0.58 0.63 1.13 0.87 1.66h-1.44c-0.28-0.53-0.57-1.05-0.9-1.58-0.32-0.53-0.65-1.04-0.99-1.53s-0.66-0.95-0.98-1.37-0.59-0.79-0.83-1.11c-0.42 0.04-0.84 0.06-1.26 0.06h-2.21v5.52h-1.34v-13.42c0.47-0.13 1.03-0.23 1.67-0.29s1.23-0.09 1.77-0.09c1.88 0 3.3 0.35 4.25 1.07 0.94 0.71 1.42 1.77 1.42 3.16"></path> <path class="st0" d="m241.38 65.69v-5.62c-0.94-1.43-1.8-2.82-2.58-4.15-0.79-1.33-1.52-2.63-2.19-3.9h1.56c0.55 1.16 1.16 2.33 1.83 3.52s1.36 2.32 2.09 3.4c0.7-1.08 1.38-2.21 2.06-3.4 0.67-1.19 1.29-2.36 1.86-3.52h1.46c-0.7 1.25-1.43 2.55-2.21 3.9s-1.62 2.72-2.53 4.11v5.66z"></path> <path class="st0" d="m276.26 58.84c0-0.92-0.12-1.75-0.35-2.48-0.24-0.73-0.57-1.35-1.01-1.86-0.43-0.51-0.96-0.9-1.57-1.17s-1.3-0.4-2.06-0.4-1.45 0.14-2.06 0.4c-0.61 0.27-1.13 0.66-1.57 1.17-0.43 0.51-0.77 1.13-1.01 1.86s-0.36 1.56-0.36 2.48 0.12 1.75 0.36 2.48 0.57 1.35 1.01 1.86c0.43 0.51 0.96 0.91 1.57 1.18 0.61 0.28 1.3 0.41 2.06 0.41s1.45-0.14 2.06-0.41c0.61-0.28 1.13-0.67 1.57-1.18 0.43-0.51 0.77-1.13 1.01-1.86 0.23-0.73 0.35-1.56 0.35-2.48m1.42 0c0 1.17-0.17 2.2-0.51 3.1-0.34 0.89-0.81 1.64-1.39 2.24-0.59 0.6-1.27 1.05-2.04 1.35-0.78 0.3-1.6 0.45-2.47 0.45s-1.69-0.15-2.47-0.45-1.46-0.75-2.04-1.35c-0.59-0.6-1.05-1.34-1.39-2.24-0.34-0.89-0.51-1.93-0.51-3.1s0.17-2.2 0.51-3.09 0.81-1.63 1.39-2.23c0.59-0.6 1.27-1.05 2.04-1.35 0.78-0.3 1.6-0.45 2.47-0.45s1.69 0.15 2.47 0.45 1.46 0.75 2.04 1.35c0.59 0.6 1.05 1.34 1.39 2.23s0.51 1.92 0.51 3.09"></path> <polygon class="st0" points="291.69 57.99 291.69 59.16 285.97 59.16 285.97 65.69 284.63 65.69 284.63 52.02 292.42 52.02 292.42 53.18 285.97 53.18 285.97 57.99"></polygon> <polygon class="st0" points="93.94 95.99 93.94 89.31 103.28 89.31 103.28 85.86 93.94 85.86 93.94 80.24 104.43 80.24 104.43 76.72 89.8 76.72 89.8 99.51 105.22 99.51 105.22 95.99"></polygon> <path class="st0" d="m124.42 99.51c-0.75-1.25-1.58-2.59-2.5-4.03s-1.87-2.88-2.86-4.34-1.99-2.87-3.01-4.24-1.99-2.6-2.91-3.7v16.31h-4.08v-22.79h3.39c0.88 0.92 1.82 2.01 2.83 3.27s2.02 2.57 3.04 3.93 2.01 2.72 2.96 4.09 1.8 2.65 2.55 3.83v-15.12h4.11v22.79z"></path> <polygon class="st0" points="137.54 95.99 137.54 89.31 146.88 89.31 146.88 85.86 137.54 85.86 137.54 80.24 148.03 80.24 148.03 76.72 133.4 76.72 133.4 99.51 148.82 99.51 148.82 95.99"></polygon> <path class="st0" d="m159.24 80.08c-0.88 0-1.69 0.03-2.43 0.1v7.36h1.81c1.01 0 1.9-0.05 2.66-0.16 0.77-0.11 1.41-0.31 1.92-0.59 0.51-0.29 0.9-0.67 1.17-1.15 0.26-0.48 0.39-1.1 0.39-1.84 0-0.7-0.13-1.29-0.39-1.78-0.26-0.48-0.64-0.87-1.13-1.15s-1.08-0.49-1.76-0.61c-0.69-0.12-1.43-0.18-2.24-0.18m-0.3-3.59c3.29 0 5.8 0.6 7.55 1.81 1.74 1.21 2.61 3.05 2.61 5.52 0 3.09-1.52 5.18-4.57 6.28 0.42 0.5 0.89 1.12 1.41 1.84 0.53 0.72 1.06 1.51 1.61 2.35s1.07 1.71 1.58 2.6c0.5 0.89 0.95 1.76 1.35 2.61h-4.64c-0.42-0.79-0.87-1.58-1.35-2.38s-0.97-1.58-1.46-2.33c-0.49-0.76-0.98-1.47-1.46-2.14s-0.93-1.27-1.35-1.79c-0.31 0.02-0.57 0.03-0.79 0.03h-2.63v8.61h-4.14v-22.45c1.01-0.22 2.08-0.37 3.22-0.44 1.14-0.08 2.16-0.12 3.06-0.12"></path> <path class="st0" d="m184.06 79.84c-2.35 0-4.14 0.73-5.38 2.19s-1.86 3.48-1.86 6.07c0 1.23 0.15 2.35 0.44 3.37 0.3 1.02 0.73 1.89 1.31 2.61s1.3 1.29 2.17 1.69c0.87 0.41 1.88 0.61 3.04 0.61 0.72 0 1.35-0.03 1.87-0.08 0.53-0.05 0.94-0.13 1.25-0.21v-8.19h4.14v10.95c-0.57 0.22-1.53 0.46-2.89 0.72s-2.93 0.39-4.7 0.39c-1.64 0-3.15-0.26-4.5-0.79-1.36-0.53-2.52-1.29-3.47-2.3s-1.69-2.25-2.22-3.72-0.79-3.16-0.79-5.06 0.29-3.59 0.87-5.06 1.38-2.71 2.38-3.73c1.01-1.02 2.19-1.79 3.55-2.32s2.81-0.79 4.34-0.79c1.05 0 1.99 0.07 2.81 0.21s1.53 0.3 2.12 0.48 1.08 0.36 1.46 0.56 0.65 0.34 0.81 0.43l-1.25 3.39c-0.66-0.39-1.47-0.73-2.45-1-0.95-0.28-1.97-0.42-3.05-0.42"></path> <path class="st0" d="m203.53 86.82c0.99-1.64 1.95-3.31 2.89-5s1.8-3.39 2.56-5.1h4.6c-1.23 2.32-2.5 4.63-3.83 6.92s-2.75 4.6-4.26 6.92v8.94h-4.14v-8.88c-1.51-2.35-2.94-4.67-4.27-6.97-1.34-2.3-2.62-4.61-3.85-6.94h4.87c0.77 1.71 1.61 3.41 2.53 5.1 0.92 1.7 1.89 3.36 2.9 5.01"></path> <path class="st0" d="m230.82 80.08c-1.05 0-1.92 0.03-2.6 0.1v7.76h2.01c1.99 0 3.53-0.28 4.6-0.84s1.61-1.62 1.61-3.17c0-0.75-0.14-1.37-0.43-1.87-0.28-0.5-0.68-0.9-1.18-1.18s-1.1-0.49-1.79-0.61c-0.7-0.13-1.44-0.19-2.22-0.19m-0.3-3.59c3.31 0 5.85 0.6 7.61 1.81s2.65 3.09 2.65 5.66c0 1.34-0.24 2.48-0.71 3.44-0.47 0.95-1.16 1.73-2.05 2.33-0.9 0.6-1.99 1.05-3.29 1.33-1.29 0.29-2.77 0.43-4.44 0.43h-2.07v8.02h-4.14v-22.46c0.96-0.22 2.03-0.37 3.21-0.44 1.16-0.08 2.24-0.12 3.23-0.12"></path> <path class="st0" d="m247.95 88.1c0 1.25 0.15 2.38 0.46 3.4s0.75 1.89 1.33 2.6 1.29 1.27 2.12 1.66 1.78 0.59 2.83 0.59c1.03 0 1.96-0.2 2.79-0.59 0.83-0.4 1.54-0.95 2.12-1.66s1.02-1.58 1.33-2.6 0.46-2.15 0.46-3.4-0.15-2.38-0.46-3.4-0.75-1.88-1.33-2.6c-0.58-0.71-1.29-1.27-2.12-1.66s-1.77-0.59-2.79-0.59c-1.05 0-1.99 0.2-2.83 0.59-0.83 0.4-1.54 0.95-2.12 1.68-0.58 0.72-1.02 1.59-1.33 2.6-0.31 1-0.46 2.13-0.46 3.38m17.78 0c0 1.95-0.29 3.67-0.87 5.16s-1.37 2.73-2.37 3.73-2.16 1.75-3.5 2.25-2.76 0.76-4.27 0.76-2.94-0.25-4.29-0.76c-1.35-0.5-2.52-1.25-3.52-2.25s-1.79-2.24-2.38-3.73-0.89-3.21-0.89-5.16 0.3-3.67 0.89-5.15 1.4-2.72 2.42-3.73 2.2-1.76 3.53-2.27c1.34-0.5 2.75-0.76 4.24-0.76s2.9 0.25 4.24 0.76c1.34 0.5 2.5 1.26 3.5 2.27s1.79 2.25 2.38 3.73c0.6 1.48 0.89 3.2 0.89 5.15"></path> <polygon class="st0" points="274.41 95.92 274.41 76.72 270.27 76.72 270.27 99.51 284.67 99.51 284.67 95.92"></polygon> <rect class="st0" x="287.83" y="76.72" width="4.14" height="22.79"></rect> <path class="st0" d="m307.56 100c-1.71 0-3.24-0.26-4.6-0.79s-2.51-1.3-3.45-2.32-1.67-2.26-2.17-3.73-0.76-3.16-0.76-5.06c0-1.91 0.29-3.59 0.87-5.06s1.38-2.71 2.38-3.73c1.01-1.02 2.19-1.79 3.55-2.32s2.82-0.79 4.37-0.79c0.94 0 1.8 0.07 2.56 0.21 0.77 0.14 1.44 0.3 2.01 0.48s1.04 0.36 1.41 0.56 0.64 0.34 0.79 0.43l-1.22 3.39c-0.53-0.33-1.28-0.64-2.25-0.94-0.98-0.3-2.03-0.44-3.17-0.44-0.99 0-1.91 0.17-2.76 0.51-0.86 0.34-1.6 0.85-2.22 1.53s-1.11 1.53-1.46 2.56-0.53 2.23-0.53 3.58c0 1.21 0.14 2.31 0.41 3.32s0.69 1.88 1.27 2.61c0.57 0.73 1.29 1.3 2.17 1.71s1.93 0.61 3.16 0.61c1.47 0 2.66-0.15 3.58-0.44 0.92-0.3 1.63-0.58 2.14-0.84l1.12 3.39c-0.26 0.18-0.62 0.35-1.07 0.53s-0.98 0.35-1.59 0.51-1.3 0.3-2.07 0.39c-0.78 0.09-1.6 0.14-2.47 0.14"></path> <path class="st0" d="m326.56 86.82c0.99-1.64 1.95-3.31 2.89-5s1.8-3.39 2.56-5.1h4.6c-1.23 2.32-2.5 4.63-3.83 6.92s-2.75 4.6-4.26 6.92v8.94h-4.14v-8.88c-1.51-2.35-2.94-4.67-4.27-6.97-1.34-2.3-2.62-4.61-3.85-6.94h4.87c0.77 1.71 1.61 3.41 2.53 5.1 0.93 1.7 1.89 3.36 2.9 5.01"></path> <path class="st0" d="m47.09 15.4 26.68 20.49-3.38 7.28s-11.18-1.65-15.25-2.04c-1.93-0.19-7.91-0.46-10.65-2.43-3.03-2.17-2.8-6.34-2.8-6.34s-2.41 5.13 2.39 8.57c0.79 0.56 1.68 1.04 2.59 1.45l15.79 43.01h-45.5c0.45-4.74 1.96-18.64 5.84-38.67 2.88-14.86 9.97-25.3 15.41-31.44 3.44-3.88 6.68-6.59 8.8-8.18zm3.62 28.04 2.51 0.4h0.02l19.11 3.02 5.56-11.99-27.5-21.13-0.14-12.69s-6.89 4.89-11.02 8.69l-6.95-5.26s-10 8.79-16.14 22.03c-6.75 14.59-9.5 39.29-9.5 39.29h9.44c-1.52 9.96-2.23 16.8-2.5 19.65h-11.21v14.23h74.17v-14.23h-10.54z"></path> </g> </svg> 