<?xml version="1.0" encoding="UTF-8"?> <svg xmlns="http://www.w3.org/2000/svg" width="340" height="148" version="1.1" viewBox="0 0 340 148" xml:space="preserve"> <style type="text/css"> .st0{fill:#1156A3;} .st1{fill:none;stroke:#F9F9F8;stroke-width:6;} .st2{fill-rule:evenodd;clip-rule:evenodd;fill:#231F20;} .st3{fill-rule:evenodd;clip-rule:evenodd;fill:#CC2026;} .st4{fill:#CC2026;} .st5{fill-rule:evenodd;clip-rule:evenodd;fill:#FFFFFF;} .st6{opacity:0.5;fill:#FFFFFF;} .st7{fill:#231F20;} .st8{fill:#FFFFFF;} .st9{opacity:0.5;fill-rule:evenodd;clip-rule:evenodd;fill:#FFFFFF;} </style> <g transform="matrix(2.8826,0,0,2.8826,-1.5854,-3.805)" stroke-width=".34691"> <rect class="st4" x=".64" y="21.86" width="19.91" height="19.91"></rect> <path class="st2" d="m19.07 21.22v-0.18h1.25v-3.45h0.23v3.63zm0-1.28 0.07 0.01v0.72h0.19v-0.78h-0.26zm0-1.96 0.07 0.01v0.98h0.19v-1.04h-0.26zm0-0.6v-0.19h0.91v0.22zm0-2.01v-0.12c0.14 0.01 0.24 0.12 0.24 0.26v1.14h-0.18v-1.13c0.01-0.07-0.02-0.12-0.06-0.15zm0-2.06v-0.05h0.26v1.04h-0.19v-0.98zm0-0.74v-0.14h1.17v0.18zm0-2.95v-0.54l0.62 1.71h-0.21zm0-2.23v-0.13c0.19 0.06 0.33 0.24 0.33 0.45v0.98h-0.18v-0.97c-0.01-0.14-0.06-0.25-0.15-0.33zm0-0.37v-0.18h0.03l-0.03-0.17v-0.32l0.24 0.67zm1.48 3.52h-0.61v-0.17h0.4l-0.16-1.12zm0 1.59h-0.18v-1.19l-0.47-0.18h0.65zm-0.22 5.05v-4.37h0.23v4.37zm-1.26-10.83v0.31l-0.09-0.56zm0 0.49v0.18h-0.34v-0.19zm0 0.42v0.13c-0.07-0.06-0.15-0.09-0.25-0.09-0.07 0-0.13 0.02-0.19 0.05 0.08-0.07 0.18-0.1 0.3-0.1 0.05-0.01 0.1 0 0.14 0.01zm0 1.82v0.55l-0.19-0.54-1.48-0.04v-0.1h1.62zm0 3.35v0.14l-1.67-0.05v-0.09zm0 0.83v0.05l-0.26-0.05zm0 1.99v0.12c-0.03-0.03-0.07-0.04-0.11-0.04-0.05 0-0.1 0.02-0.13 0.06 0.04-0.08 0.13-0.13 0.23-0.13 0-0.01 0.01-0.01 0.01-0.01zm0 1.94v0.19l-1.67-0.06v-0.13zm0 0.74v0.05l-0.26-0.05zm0 1.96v0.05l-0.26-0.05zm0 1.14v0.18h-1.67v-0.18zm-1.67-1.12v-0.02h0.42v0.78h-0.19v-0.72zm0-1.96v-0.02h0.42v1.04h-0.19v-0.98zm0-2.61v-0.04c0.04-0.03 0.1-0.05 0.15-0.05 0.14 0 0.26 0.12 0.26 0.26v1.14h-0.18v-1.13c0-0.11-0.08-0.19-0.18-0.19-0.01 0-0.03 0-0.05 0.01zm0-2.06v-0.02h0.42v1.04h-0.19v-0.98zm0-2.66v-0.1c0.12 0.02 0.22 0.13 0.22 0.26v0.77h-0.16v-0.77c0-0.07-0.02-0.12-0.06-0.16zm0-0.21v-0.16c0.04 0 0.08 0.04 0.08 0.08s-0.04 0.08-0.08 0.08zm1.48-4.53c0-0.05 0.04-0.09 0.09-0.09s0.09 0.04 0.09 0.09-0.04 0.09-0.09 0.09c-0.05-0.01-0.09-0.05-0.09-0.09zm-1.48 3.07v0.1l-0.7-0.01v-0.09zm0 1.3v0.16c-0.04 0-0.08-0.04-0.08-0.08 0-0.05 0.03-0.08 0.08-0.08zm0 0.27v0.1c-0.03-0.03-0.08-0.05-0.13-0.05-0.03 0-0.06 0.01-0.09 0.02 0.05-0.05 0.11-0.08 0.18-0.08 0.02 0 0.03 0.01 0.04 0.01zm0 1.91v0.09l-0.7-0.02v-0.07zm0 0.83v0.02l-0.1-0.02zm0 2.04v0.03c-0.03 0.01-0.05 0.03-0.07 0.05 0.02-0.03 0.04-0.06 0.07-0.08zm0 1.89v0.13l-0.71-0.02v-0.1h0.71zm0 0.74v0.02l-0.1-0.02zm0 1.96v0.02l-0.1-0.02zm0 1.14v0.18h-0.7v-0.18zm-0.7-11.62v-0.09c0.11 0.02 0.19 0.11 0.19 0.22v0.36h-0.14v-0.36c-0.01-0.05-0.02-0.09-0.05-0.13zm0-0.46v0.09l-0.6-0.01v-0.08zm0 0.37v0.09c-0.03-0.03-0.07-0.05-0.11-0.05-0.03 0-0.06 0.01-0.08 0.02 0.04-0.04 0.1-0.07 0.16-0.07 0 0.01 0.01 0.01 0.03 0.01zm0 3.11v0.07l-0.6-0.02v-0.05zm0 4.76v0.1l-0.6-0.02v-0.08zm0 3.84v0.18h-0.6v-0.18zm-0.6-1.08v-0.06h0.21v0.78h-0.19v-0.72zm0-1.96v-0.06h0.21v1.04h-0.19v-0.98zm0-2.57v-0.17c0.11 0.03 0.2 0.13 0.2 0.25v1.14h-0.18v-1.13c0-0.03-0.01-0.06-0.02-0.09zm0-2.1v-0.06h0.21v1.04h-0.19v-0.98zm0-2.7v-0.1c0.12 0.02 0.22 0.13 0.22 0.26v0.77h-0.16v-0.77c0-0.07-0.02-0.12-0.06-0.16zm0-0.21v-0.16c0.04 0 0.08 0.04 0.08 0.08s-0.04 0.08-0.08 0.08zm0-1.46v0.07l-0.94-0.02v-0.05zm0 1.3v0.16c-0.04 0-0.08-0.04-0.08-0.08 0-0.05 0.03-0.08 0.08-0.08zm0 0.27v0.1c-0.03-0.03-0.08-0.05-0.13-0.05-0.03 0-0.06 0.01-0.09 0.02 0.05-0.05 0.11-0.08 0.18-0.08 0.02 0 0.03 0.01 0.04 0.01zm0 1.91v0.05l-0.94-0.03v-0.02zm0 0.83v0.06l-0.31-0.06zm0 2v0.17c-0.03-0.06-0.09-0.1-0.15-0.1-0.05 0-0.1 0.02-0.13 0.06 0.04-0.08 0.13-0.13 0.23-0.13 0.01-0.01 0.03-0.01 0.05 0zm0 1.93v0.08l-0.94-0.03v-0.05zm0 0.74v0.06l-0.31-0.06zm0 1.96v0.06l-0.31-0.06zm0 1.14v0.18h-0.94v-0.18zm-0.94-11.62v-0.09c0.11 0.02 0.19 0.11 0.19 0.22v0.36h-0.14v-0.36c0-0.05-0.02-0.09-0.05-0.13zm0-0.46v0.05l-0.49-0.01v-0.04zm0 0.37v0.09c-0.03-0.03-0.07-0.05-0.11-0.05-0.03 0-0.06 0.01-0.08 0.02 0.04-0.04 0.1-0.07 0.16-0.07 0.01 0.01 0.02 0.01 0.03 0.01zm0 3.11v0.02l-0.49-0.01v-0.01zm0 4.76v0.05l-0.49-0.02v-0.03zm0 3.84v0.18h-0.49v-0.18zm-0.49-0.36v-0.78h0.09v0.78zm0-1.7v-1.04h0.09v1.04zm0-2.32v-1.35c0.06 0.05 0.1 0.12 0.1 0.2v1.14h-0.1zm0-2.34v-1.04h0.09v1.04zm0-3.69v-0.1c0.12 0.02 0.22 0.13 0.22 0.26v0.77h-0.16v-0.77c0-0.07-0.02-0.12-0.06-0.16zm0-0.21v-0.16c0.04 0 0.08 0.04 0.08 0.08s-0.04 0.08-0.08 0.08zm-1.07 2.23v4.03h-0.22l-0.01-4.03zm1.07-3.69v0.04l-1.48-0.04zm0 1.3v0.16c-0.04 0-0.08-0.04-0.08-0.08 0-0.05 0.03-0.08 0.08-0.08zm0 0.27v0.1c-0.03-0.03-0.08-0.05-0.13-0.05-0.03 0-0.06 0.01-0.09 0.02 0.05-0.05 0.11-0.08 0.18-0.08 0.02 0 0.03 0.01 0.04 0.01zm0 1.91h-0.32zm0 0.83v1.04h-0.09v-0.98l-0.33-0.06zm0 2.04v1.35h-0.08v-1.13c0-0.11-0.08-0.19-0.18-0.19-0.05 0-0.1 0.02-0.13 0.06 0.04-0.08 0.13-0.13 0.23-0.13 0.06-0.01 0.12 0.01 0.16 0.04zm0 1.89v0.03l-0.89-0.03zm0 0.74v1.04h-0.09v-0.98l-0.33-0.06zm0 1.96v0.78h-0.09v-0.72l-0.33-0.06zm0 1.14v0.18h-0.97v-0.18zm-1.48 0.19v-0.18h0.09v0.18zm0-3.84v-0.18h0.09v0.19zm0-4.91v-0.18h0.09v0.18zm0-1.57v-0.03h0.4v1.1h-0.18v-1.01zm0-0.35v-0.18h0.2l-0.13-0.74 0.33 0.92zm0.19 10.26v-3.23h0.22v3.23zm-0.19-11.86h-0.02zm0 1.42v0.18h-0.05v-0.18zm0 0.5v0.03l-0.09-0.03zm0 1.42v0.18l-1.32-0.03c-0.03-0.07-0.07-0.13-0.12-0.19v-0.17c0.08 0.06 0.15 0.14 0.2 0.21zm0 4.9v0.18l-1.44-0.05v-0.13zm0 3.84v0.18h-0.19v-0.18zm-1.44 0.19v-0.18h0.82v0.18zm0-9.7v-1.37l0.13 0.08v1.29zm0-1.81v-0.12h0.13l-0.07-0.34 0.2 0.46zm0-0.6v-0.13c0.01-0.01 0.03-0.01 0.04-0.01 0.04 0 0.08 0.04 0.08 0.08s-0.04 0.08-0.08 0.08c-0.01 0-0.03-0.01-0.04-0.02zm0-1.17 0.3 0.01 0.66 2.6h0.19l-0.67-2.72h-0.47v0.11zm0-0.46v-0.21l0.43 0.35h-0.26zm1.03 9.17h-0.18v-1.13c0-0.11-0.08-0.19-0.18-0.19-0.05 0-0.1 0.02-0.13 0.06 0.04-0.08 0.13-0.13 0.23-0.13 0.14 0 0.26 0.12 0.26 0.26zm0.1 4.16h-0.19v-2.21c0-0.27-0.16-0.45-0.37-0.45-0.1 0-0.2 0.05-0.26 0.12 0.08-0.13 0.22-0.21 0.37-0.21 0.25 0 0.46 0.23 0.46 0.51zm-0.1-6.5h-0.19v-0.98l-0.33-0.06h0.52zm-1.03-7.04v0.21l-0.68-0.55-0.48-0.04v-0.06h0.62zm0 0.57v0.11l-1.16-0.05v-0.06zm0 1.14v0.14c-0.02-0.01-0.04-0.04-0.04-0.07s0.02-0.06 0.04-0.07zm0 0.61v0.12h-0.13l0.01-0.12zm0 0.56-1.16-0.72v0.07l1.06 0.77v1.25h0.1zm0 1.93v0.17c-0.22-0.26-0.66-0.44-1.16-0.46v-0.06c0.47 0 0.89 0.14 1.16 0.35zm0 5.11v0.13l-1.16-0.04v-0.09zm0 3.84v0.18h-0.44v-0.18zm-1.16 0.19v-0.18h0.29v0.18zm0-3.31v-0.14c0.34 0 0.62 0.28 0.62 0.62v2.41h-0.24v-2.34c0-0.27-0.16-0.48-0.38-0.55zm0-2.81v-0.13h0.01c0.28 0 0.51 0.23 0.51 0.51v1.17h-0.21v-1.12c-0.01-0.22-0.13-0.38-0.31-0.43zm0-2.19v-0.12h0.01c0.27 0 0.49 0.2 0.49 0.27v1.25h-0.23v-1.17c0-0.06-0.11-0.18-0.27-0.23zm0-2.8v-0.16l0.43 0.29c0.12 0.1 0.21 0.23 0.21 0.41v0.68h-0.19v-0.68c0-0.15-0.07-0.26-0.18-0.35zm0-0.93v-0.14h0.1l-0.1-0.42v-0.01l0.24 0.57zm0-0.75v-0.19c0.05 0 0.09 0.04 0.09 0.09s-0.04 0.09-0.09 0.1zm0-2.63v-0.1h0.58v0.93h-0.19v-0.75zm0-0.6v-0.13c0.24 0 0.43 0.19 0.44 0.42h-0.15c-0.03-0.14-0.14-0.26-0.29-0.29zm0-0.34v-3.54h0.06v3.54zm0-3.54v3.54h-0.06v-3.54zm0 3.75v0.13c-0.03-0.01-0.05-0.01-0.08-0.01-0.18 0-0.32 0.12-0.37 0.28 0.03-0.22 0.22-0.4 0.45-0.4zm0 0.63v0.1l-0.59-0.1zm0 1.13v0.05l-0.68-0.05zm0 1.01v0.06l-1.14-0.04v-0.02zm0 0.4v0.19c-0.05 0-0.09-0.04-0.09-0.09-0.01-0.06 0.04-0.1 0.09-0.1zm0 0.37m0 0.43v0.15h-0.24l0.03-0.15zm0 0.38v0.08l-1.14 0.66v-0.01zm0 0.53-0.61 0.44 0.51-0.35 0.1 0.07zm0 1.77v0.06h-0.08c-0.42 0-0.8 0.12-1.06 0.3v-0.03c0.26-0.2 0.67-0.33 1.14-0.33zm0 1.07v0.12c-0.04-0.01-0.08-0.02-0.13-0.02-0.13 0-0.24 0.05-0.32 0.11 0.06-0.09 0.24-0.21 0.45-0.21zm0 2.18v0.13c-0.03-0.01-0.07-0.01-0.11-0.01-0.16 0-0.29 0.09-0.36 0.21 0.08-0.19 0.26-0.32 0.47-0.33zm0 2.22v0.09l-1.14-0.04v-0.06h1.14zm0 0.58v0.14c-0.05-0.01-0.1-0.02-0.15-0.02-0.13 0-0.25 0.05-0.35 0.13 0.12-0.15 0.3-0.24 0.5-0.25zm0 3.26v0.18h-1.14v-0.18zm-1.14-11.32h0.11l-0.11-0.26zm0-1.87v0.03h-0.11v-0.03zm0 1.61v0.26h-0.11v-0.12h0.09l-0.07-0.34zm0 0.71-0.11 0.07zm0 1.9v0.03c-0.04 0.03-0.08 0.06-0.11 0.09v-0.02c0.03-0.04 0.07-0.07 0.11-0.1zm0 5.13v0.06h-0.11v-0.05h0.11zm0 3.84v0.18h-0.11v-0.18zm-0.11-11.9v-0.17c0.04 0 0.08 0.04 0.08 0.08 0 0.05-0.04 0.09-0.08 0.09zm0-1.29v0.02l-0.6-0.02zm0 1.12v0.16c-0.04 0-0.08-0.04-0.08-0.08-0.01-0.04 0.03-0.08 0.08-0.08zm0 0.63v0.12h-0.17l0.01-0.12zm0 0.64m0 1.92v0.02c-0.06 0.06-0.12 0.13-0.16 0.2 0.04-0.08 0.09-0.15 0.16-0.22zm0 5.04v0.05l-1.49-0.05zm0 3.84v0.18h-0.23v-0.18zm-1.49 0.19v-0.18h0.84v0.18zm0-10.27v-0.08h0.23v1.1h-0.18v-1.01zm0-0.4v-0.18h0.03l-0.03-0.16v-0.3l0.23 0.64zm0-1.45v-0.14h0.28v0.14zm1.07 7.55h-0.17v-1.13c0-0.11-0.08-0.19-0.18-0.19-0.05 0-0.1 0.02-0.13 0.06 0.04-0.08 0.13-0.13 0.23-0.13 0.14 0 0.26 0.12 0.26 0.26zm0.08 4.16h-0.2v-2.21c0-0.27-0.16-0.45-0.37-0.45-0.1 0-0.2 0.05-0.26 0.12 0.08-0.13 0.22-0.21 0.37-0.21 0.25 0 0.46 0.23 0.46 0.51zm-0.09-6.5h-0.19v-0.98l-0.33-0.06h0.52zm-1.06-5.35v0.14h-1.41v-0.14zm0 0.95v0.3l-0.1-0.57zm0 0.46v0.18h-0.23v-0.18zm0 0.5v0.08l-0.27-0.08zm0 6.32h-0.04zm0 3.84v0.18h-0.18v-0.18zm-1.41 0.19v-0.18h0.8v0.18zm0-1.29v-0.04h0.29v0.78h-0.19v-0.72zm0-1.96v-0.04h0.29v1.04h-0.19v-0.98zm0-0.65v-0.13h0.8v0.15zm0-1.98v-0.09h0.02c0.14 0 0.26 0.12 0.26 0.26v1.14h-0.18v-1.13c0-0.08-0.04-0.15-0.1-0.18zm0-2.03v-0.04h0.29v1.04h-0.19v-0.98zm0-0.75v-0.13h0.8v0.15zm0-1.94v-0.1c0.12 0.02 0.22 0.13 0.22 0.26v0.77h-0.16v-0.77c0-0.07-0.03-0.12-0.06-0.16zm0-0.21v-0.16c0.04 0 0.07 0.04 0.07 0.08s-0.03 0.08-0.07 0.08zm0.9 10.4v-3.23h0.22v3.23zm0-4.16v-3.85h0.22v3.85zm-0.9-7.69v0.14h-0.59v-0.14zm0 1.29v0.16c-0.04 0-0.08-0.04-0.08-0.08 0-0.05 0.03-0.08 0.08-0.08zm0 0.27v0.1c-0.03-0.03-0.08-0.05-0.13-0.05-0.03 0-0.06 0.01-0.09 0.02 0.05-0.05 0.11-0.08 0.18-0.08 0.01 0 0.03 0.01 0.04 0.01zm0 1.91v0.13l-0.59-0.01v-0.11h0.59zm0 0.83v0.04l-0.22-0.04zm0 1.99v0.09c-0.02-0.01-0.05-0.02-0.07-0.02-0.05 0-0.1 0.02-0.13 0.06 0.04-0.07 0.11-0.12 0.2-0.13zm0 1.94v0.13l-0.59-0.01v-0.11h0.59zm0 0.74v0.04l-0.22-0.04zm0 1.96v0.04l-0.22-0.04zm0 1.14v0.18h-0.59v-0.18zm-0.59-11.62v-0.09c0.11 0.02 0.19 0.11 0.19 0.22v0.36h-0.14v-0.36c0-0.05-0.02-0.09-0.05-0.13zm0-0.45v0.14h-0.71v-0.14zm0 0.36v0.09c-0.03-0.03-0.07-0.04-0.11-0.04-0.03 0-0.06 0.01-0.08 0.02 0.04-0.04 0.1-0.07 0.16-0.07zm0 3.11v0.11l-0.71-0.02v-0.1h0.71zm0 4.76v0.11l-0.71-0.02v-0.1h0.71zm0 3.84v0.18h-0.71v-0.18zm-0.71-0.36v-0.78h0.08v0.78zm0-1.7v-1.04h0.08v1.04zm0-2.32v-1.33c0.05 0.05 0.08 0.11 0.08 0.19v1.14zm0-2.34v-1.04h0.08v1.04zm0-3.69v-0.1c0.12 0.02 0.22 0.13 0.22 0.26v0.77h-0.17v-0.77c0-0.07-0.02-0.12-0.05-0.16zm0-0.21v-0.16c0.04 0 0.08 0.04 0.08 0.08-0.01 0.04-0.04 0.08-0.08 0.08zm0-1.45v0.14h-0.79v-0.14zm0 1.29v0.16c-0.04 0-0.08-0.04-0.08-0.08 0-0.05 0.03-0.08 0.08-0.08zm0 0.27v0.1c-0.03-0.03-0.08-0.05-0.13-0.05-0.03 0-0.06 0.01-0.09 0.02 0.05-0.05 0.11-0.08 0.18-0.08 0.01 0 0.03 0.01 0.04 0.01zm0 1.91v0.1l-0.79-0.03v-0.08h0.79zm0 0.83v1.04h-0.1v-0.98l-0.34-0.06zm0 2.06v1.33h-0.1v-1.13c0-0.11-0.08-0.19-0.18-0.19-0.05 0-0.1 0.02-0.13 0.06 0.04-0.08 0.13-0.13 0.23-0.13 0.07-0.01 0.13 0.02 0.18 0.06zm0 1.87v0.1l-0.79-0.02v-0.08zm0 0.74v1.04h-0.1v-0.98l-0.34-0.06zm0 1.96v0.78h-0.1v-0.72l-0.34-0.06zm0 1.14v0.18h-0.79v-0.18zm-0.79-11.62v-0.09c0.11 0.02 0.19 0.11 0.19 0.22v0.36h-0.15v-0.36c0-0.05-0.01-0.09-0.04-0.13zm0-0.45v0.14h-0.62v-0.14zm0 0.36v0.09c-0.03-0.03-0.07-0.04-0.12-0.04-0.03 0-0.06 0.01-0.08 0.02 0.04-0.04 0.1-0.07 0.16-0.07zm0 3.11v0.08l-0.62-0.02v-0.06zm0 4.76v0.08l-0.62-0.02v-0.06zm0 3.84v0.18h-0.62v-0.18zm-0.62-10.41v-0.1c0.12 0.02 0.22 0.13 0.22 0.26v0.77h-0.17v-0.77c0-0.07-0.02-0.12-0.05-0.16zm0-0.21v-0.16c0.04 0 0.08 0.04 0.08 0.08-0.01 0.04-0.04 0.08-0.08 0.08zm0-1.45v0.14h-0.27v-0.14zm0 1.29v0.16c-0.04 0-0.08-0.04-0.08-0.08-0.01-0.05 0.03-0.08 0.08-0.08zm0 0.27v0.1c-0.03-0.03-0.08-0.05-0.13-0.05-0.03 0-0.06 0.01-0.09 0.02 0.05-0.05 0.11-0.08 0.18-0.08 0.01 0 0.02 0.01 0.04 0.01zm0 1.91v0.06l-0.27-0.01v-0.05zm0 4.76v0.06l-0.27-0.01v-0.05zm0 3.84v0.18h-0.27v-0.18zm-0.27-1.09v-0.05h0.26v0.78h-0.19v-0.72zm0-1.96v-0.05h0.26v1.04h-0.19v-0.98zm0-2.62v-0.11c0.14 0 0.25 0.12 0.25 0.26v1.14h-0.18v-1.13c0-0.07-0.03-0.13-0.07-0.16zm0-2.05v-0.05h0.26v1.04h-0.19v-0.98zm0-4.35v0.14h-1.22l-0.33 0.89v-0.22l0.24-0.8h1.31zm0 3.47v0.05l-1.55-0.04v-0.01zm0 0.83v0.05l-0.26-0.05zm0 1.99v0.11c-0.03-0.02-0.07-0.04-0.1-0.04-0.05 0-0.1 0.02-0.13 0.06 0.04-0.08 0.12-0.13 0.23-0.13zm0 1.94v0.05l-1.55-0.04v-0.01zm0 0.74v0.05l-0.26-0.05zm0 1.96v0.05l-0.26-0.05zm0 1.14v0.18h-1.55v-0.18zm-1.55-1.09v-0.05h0.26v0.78h-0.19v-0.72zm0-1.96v-0.05h0.26v1.04h-0.19v-0.98zm0-2.63v-0.1h0.01c0.14 0 0.26 0.12 0.26 0.26v1.14h-0.18v-1.13c0-0.08-0.04-0.14-0.09-0.17zm0-2.04v-0.05h0.26v1.04h-0.19v-0.98zm0-6.01v-0.06h0.02c0.26 0 0.47 0.21 0.47 0.47v0.98h-0.18v-0.97c0-0.22-0.13-0.38-0.31-0.42zm0-0.28v-0.18h0.19l-0.11-0.73 0.33 0.92h-0.41zm0-1.09v-0.11c0.02-0.02 0.04-0.03 0.06-0.03 0.05 0 0.09 0.04 0.09 0.09s-0.04 0.09-0.09 0.09c-0.02-0.01-0.04-0.02-0.06-0.04zm0-0.11v0.11c-0.01-0.01-0.02-0.03-0.02-0.05s0.01-0.04 0.02-0.06zm0 1.02v0.19h-0.17v-0.19zm0 0.4v0.06h-0.08c-0.07 0-0.13 0.02-0.19 0.05 0.07-0.07 0.17-0.11 0.27-0.11zm0 2.53v0.22l-0.34 0.9zm0 2.66v0.01l-0.55-0.01zm0 0.83v0.05l-0.26-0.05zm0 1.99v0.1c-0.03-0.01-0.05-0.02-0.09-0.02-0.05 0-0.1 0.02-0.13 0.06 0.05-0.08 0.13-0.14 0.22-0.14zm0 1.94v0.01l-0.55-0.01zm0 0.74v0.05l-0.26-0.05zm0 1.96v0.05l-0.26-0.05zm0 1.14h-1.15v-3.65h-0.12v3.83h1.27zm-0.7-10.49h-0.62v-0.17h0.4l-0.16-1.13zm0 1.59h-0.19v-1.19l-0.47-0.18h0.65v1.37zm-0.58 4.52v-3.94h0.12v3.94z"></path> <path class="st7" d="m36.09 25.29-0.7-1.67c0-0.09-0.09-0.26-0.09-0.35s0.13-0.18 0.26-0.18c0.09 0 0.18 0 0.18-0.04 0-0.09-0.09-0.09-0.13-0.09h-1.23c-0.04 0-0.09 0-0.09 0.04 0 0.09 0.09 0.09 0.13 0.09 0.26 0 0.31 0.13 0.4 0.4l1.01 2.38v0.09c0.04 0 0.04 0.04 0.09 0.04 0.04 0 0.09-0.13 0.09-0.13l0.97-2.11c0.13-0.26 0.26-0.62 0.57-0.66 0.04 0 0.18 0 0.18-0.09 0-0.04-0.04-0.04-0.09-0.04h-1.01c-0.04 0-0.09 0-0.09 0.04 0 0.09 0.13 0.09 0.18 0.09 0.13 0 0.26 0.04 0.26 0.18 0 0.09-0.04 0.22-0.09 0.31z"></path> <path class="st7" d="m33.49 22.3c0.18 0 0.31-0.18 0.31-0.35 0-0.13-0.13-0.31-0.31-0.31s-0.31 0.18-0.31 0.35c0 0.13 0.13 0.31 0.31 0.31z"></path> <path class="st7" d="m33.71 23c0-0.04 0-0.13-0.04-0.13s-0.09 0.04-0.13 0.09c-0.09 0.13-0.4 0.31-0.53 0.35-0.09 0.04-0.18 0.04-0.18 0.13 0 0.04 0.04 0.04 0.09 0.04h0.09c0.04 0 0.13 0 0.18 0.04 0.09 0.09 0.09 0.35 0.09 0.44v1.46c0 0.18-0.04 0.35-0.31 0.35-0.09 0-0.18 0-0.18 0.09s0.04 0.09 0.09 0.09c0.22 0 0.4-0.04 0.62-0.04s0.44 0.04 0.66 0.04c0.04 0 0.04-0.04 0.04-0.09 0-0.09-0.09-0.09-0.18-0.09-0.26 0-0.31-0.18-0.31-0.35v-0.18z"></path> <path class="st7" d="m29.44 25.25v0.18c0 0.18-0.04 0.35-0.31 0.35-0.09 0-0.18 0-0.18 0.09s0.04 0.09 0.09 0.09c0.22 0 0.44-0.04 0.66-0.04 0.18 0 0.4 0.04 0.62 0.04 0.04 0 0.09-0.04 0.09-0.09 0-0.09-0.13-0.09-0.22-0.09-0.26 0-0.31-0.18-0.31-0.35 0-0.04 0.04-0.13 0.04-0.18v-1.15c0-0.26 0-0.44 0.18-0.62s0.44-0.31 0.7-0.31 0.48 0.13 0.62 0.31c0.13 0.18 0.13 0.44 0.13 0.66v1.28c0 0.18-0.04 0.35-0.31 0.35-0.09 0-0.18 0-0.18 0.09s0.04 0.09 0.09 0.09c0.18 0 0.4-0.04 0.62-0.04s0.44 0.04 0.66 0.04c0.04 0 0.04-0.04 0.04-0.09 0-0.09-0.09-0.09-0.18-0.09-0.26 0-0.31-0.18-0.31-0.35v-1.28c0-0.31 0-0.62-0.18-0.93-0.22-0.22-0.48-0.35-0.79-0.35-0.62 0-1.01 0.57-1.1 0.57v-0.43c0-0.04 0-0.13-0.09-0.13-0.04 0-0.09 0.04-0.13 0.09-0.09 0.13-0.4 0.31-0.53 0.35-0.07 0.04-0.16 0.04-0.16 0.13 0 0.04 0.04 0.04 0.09 0.04h0.09c0.04 0 0.18 0 0.18 0.04 0.09 0.09 0.09 0.35 0.09 0.44v1.29z"></path> <path class="st7" d="m39.39 22.87v0.13c-0.31 0.04-0.57 0.22-0.75 0.44-0.09 0.09-0.18 0.31-0.18 0.4s0.09 0.09 0.22 0.09h0.7v0.18h-0.7c-0.22 0-0.26 0-0.26 0.18 0 0.66 0.35 1.23 0.97 1.37v0.34c-0.88-0.04-1.5-0.75-1.5-1.54 0-0.48 0.13-0.84 0.48-1.15 0.32-0.22 0.63-0.4 1.02-0.44z"></path> <path class="st7" d="m27.98 24.59c0 0.31 0 0.62-0.26 0.88s-0.7 0.35-1.1 0.35c-0.35 0-0.88-0.09-1.06-0.44-0.18-0.22-0.18-0.75-0.18-1.01v-2.07c0-0.31 0.04-0.4 0.44-0.4 0.09 0 0.18 0 0.18-0.09s-0.04-0.09-0.09-0.09c-0.26 0-0.53 0.04-0.79 0.04-0.22 0-0.48-0.04-0.75-0.04-0.04 0-0.09 0-0.09 0.09s0.09 0.09 0.13 0.09c0.44 0 0.44 0.09 0.44 0.4v2.29c0 0.44 0 0.84 0.4 1.1 0.35 0.26 0.88 0.31 1.28 0.31 0.44 0 0.92-0.04 1.28-0.35 0.35-0.31 0.35-0.66 0.35-1.06v-2.11c0-0.31-0.04-0.57 0.35-0.57 0.04 0 0.22 0 0.22-0.09s-0.09-0.09-0.13-0.09c-0.18 0-0.35 0.04-0.53 0.04-0.22 0-0.4-0.04-0.62-0.04-0.09 0-0.13 0-0.13 0.09s0.09 0.09 0.18 0.09c0.13 0 0.31 0 0.4 0.18 0.09 0.13 0.09 0.48 0.09 0.66v1.84z"></path> <path class="st7" d="m46.97 22.3c0.18 0 0.26-0.18 0.26-0.35 0-0.13-0.09-0.31-0.26-0.31-0.18 0-0.31 0.18-0.31 0.35 0 0.13 0.09 0.31 0.31 0.31z"></path> <path class="st7" d="m47.19 23c0-0.04 0-0.13-0.04-0.13-0.09 0-0.09 0.04-0.13 0.09-0.13 0.13-0.4 0.31-0.57 0.35-0.04 0.04-0.13 0.04-0.13 0.13 0 0.04 0 0.04 0.04 0.04h0.09c0.09 0 0.18 0 0.22 0.04 0.04 0.09 0.04 0.35 0.04 0.44v1.28c0 0.04 0.04 0.13 0.04 0.18 0 0.18-0.04 0.35-0.35 0.35-0.04 0-0.18 0-0.18 0.09s0.04 0.09 0.09 0.09c0.22 0 0.44-0.04 0.66-0.04 0.18 0 0.4 0.04 0.62 0.04 0.04 0 0.09-0.04 0.09-0.09 0-0.09-0.13-0.09-0.18-0.09-0.26 0-0.31-0.18-0.31-0.35v-0.18z"></path> <path class="st7" d="m43.58 25.56c0 0.09 0 0.18 0.09 0.22 0.22 0.13 0.61 0.22 0.83 0.22 0.57 0 1.28-0.35 1.28-0.97 0-1.1-1.67-0.75-1.67-1.54 0-0.31 0.35-0.48 0.62-0.48 0.75 0 0.66 0.62 0.84 0.62 0.04 0 0.04-0.09 0.04-0.18v-0.31c0-0.04 0-0.13-0.04-0.13-0.18-0.09-0.53-0.13-0.7-0.13-0.31 0-0.57 0.04-0.79 0.22s-0.35 0.35-0.35 0.62c0 0.57 0.62 0.75 1.01 0.88 0.31 0.09 0.66 0.22 0.66 0.62 0 0.44-0.44 0.66-0.84 0.66-0.92 0-0.62-0.93-0.88-0.93-0.09 0-0.09 0.09-0.09 0.18v0.43z"></path> <path class="st7" d="m41.68 25.25v0.18c0 0.18-0.04 0.35-0.31 0.35-0.04 0-0.18 0-0.18 0.09s0.04 0.09 0.09 0.09c0.22 0 0.44-0.04 0.66-0.04 0.18 0 0.4 0.04 0.62 0.04 0.04 0 0.09-0.04 0.09-0.09 0-0.09-0.13-0.09-0.22-0.09-0.26 0-0.31-0.18-0.31-0.35 0-0.04 0.04-0.13 0.04-0.18v-1.1c0-0.26 0-0.44 0.13-0.66 0.09-0.09 0.22-0.22 0.35-0.22 0.18 0 0.22 0.22 0.44 0.22 0.13 0 0.26-0.09 0.26-0.26 0-0.18-0.18-0.31-0.4-0.31-0.44 0-0.7 0.53-0.79 0.53v-0.45c0-0.04 0-0.13-0.09-0.13-0.04 0-0.09 0.04-0.13 0.09-0.09 0.13-0.4 0.31-0.53 0.35-0.09 0.04-0.18 0.04-0.18 0.13 0 0.04 0.04 0.04 0.09 0.04h0.09c0.04 0 0.18 0 0.22 0.04 0.04 0.09 0.04 0.35 0.04 0.44v1.29z"></path> <path class="st7" d="m39.39 24.1v-0.18c0.18 0 0.48 0 0.62-0.04 0.18-0.04 0.26-0.13 0.26-0.26 0-0.18-0.09-0.31-0.18-0.4-0.13-0.18-0.35-0.22-0.57-0.22h-0.13v-0.13h0.22c0.35 0 0.75 0.13 0.97 0.44 0.13 0.13 0.22 0.44 0.22 0.66 0 0.04 0 0.13-0.09 0.13z"></path> <path class="st7" d="m39.39 26v-0.35c0.09 0.04 0.22 0.04 0.31 0.04 0.66 0 0.92-0.44 1.01-0.44 0.04 0 0.04 0.04 0.04 0.09 0 0.04-0.22 0.26-0.26 0.26-0.31 0.31-0.62 0.4-1.06 0.4z"></path> <path class="st7" d="m49.61 25.51h-0.04c-0.04 0-0.22 0.22-0.48 0.22-0.4 0-0.4-0.48-0.4-0.79v-1.67c0-0.13 0.04-0.18 0.26-0.18h0.4c0.18 0 0.18 0 0.18-0.09 0-0.04 0-0.09-0.04-0.09h-0.66c-0.09 0-0.13-0.04-0.13-0.13v-0.48c0-0.04 0-0.09-0.04-0.09s-0.04 0.04-0.04 0.04c-0.18 0.35-0.35 0.53-0.66 0.7-0.04 0-0.09 0.04-0.09 0.09 0 0.04 0.09 0.04 0.22 0.04s0.18 0.04 0.18 0.13v1.94c0 0.22 0 0.44 0.13 0.62s0.31 0.22 0.48 0.22c0.26 0 0.48-0.09 0.62-0.26 0.04 0 0.13-0.09 0.13-0.13v-0.09z"></path> <path class="st7" d="m49.61 23.09h0.18c0.26 0 0.35 0.26 0.4 0.48l0.93 2.11c0 0.09 0.09 0.18 0.09 0.26 0 0.09-0.04 0.13-0.09 0.22l-0.22 0.53c-0.04 0.09-0.04 0.22-0.18 0.22-0.09 0.04-0.22 0.04-0.31 0.04-0.18 0-0.22 0.09-0.22 0.26 0 0.22 0.22 0.22 0.4 0.22 0.26 0 0.26-0.04 0.35-0.31l1.32-3.17c0.09-0.18 0.26-0.57 0.4-0.7 0.04-0.09 0.22-0.18 0.26-0.18s0.18 0 0.18-0.04-0.04-0.09-0.13-0.09h-1.07c-0.04 0-0.09 0.04-0.09 0.09 0 0.04 0.09 0.04 0.13 0.04 0.18 0 0.35 0.04 0.35 0.26 0 0.09-0.04 0.18-0.09 0.26l-0.75 1.76-0.75-1.81c-0.04-0.09-0.09-0.18-0.09-0.26 0-0.18 0.22-0.22 0.35-0.22 0.04 0 0.18 0 0.18-0.04s-0.04-0.09-0.09-0.09h-1.32c-0.04 0-0.09 0-0.13 0.04v0.12z"></path> <path class="st7" d="m49.61 25.6v-0.09c0 0.04 0.04 0.04 0.04 0.04s-0.04 0.01-0.04 0.05z"></path> <path class="st7" d="m57.36 22.87v0.18c-0.7 0.22-1.06 1.19-1.06 1.85 0 0.48 0.18 0.97 0.7 0.97 0.13 0 0.22-0.04 0.35-0.09v0.18c-0.12 0.04-0.25 0.04-0.38 0.04-0.7 0-1.15-0.66-1.15-1.32 0-0.84 0.71-1.64 1.54-1.81z"></path> <path class="st7" d="m58.29 26.92v0.53c-0.26 0-0.57-0.13-0.57-0.44 0-0.13 0.13-0.26 0.31-0.26 0.13-0.01 0.21 0.08 0.26 0.17z"></path> <path class="st7" d="m58.29 24.45v0.92c-0.26 0.26-0.57 0.48-0.92 0.57v-0.18c0.43-0.16 0.79-0.78 0.92-1.31z"></path> <path class="st7" d="m58.29 23.04v0.31c-0.09-0.22-0.26-0.4-0.62-0.4-0.09 0-0.22 0.04-0.31 0.09v-0.18c0.09-0.04 0.18-0.04 0.26-0.04 0.27 0 0.49 0.09 0.67 0.22z"></path> <path class="st7" d="m58.29 25.38c0.31-0.31 0.53-0.79 0.53-1.23s-0.18-0.88-0.53-1.1v0.31c0.04 0.13 0.09 0.31 0.09 0.48 0 0.18-0.04 0.4-0.09 0.62z"></path> <path class="st7" d="m58.29 27.45v-0.53c0 0.09 0.04 0.13 0.04 0.22s0 0.22 0.09 0.22c0.18 0 0.31-0.13 0.35-0.26 0.18-0.26 0.35-0.84 0.44-1.15l0.88-2.86h-0.35c-0.13 0-0.18 0-0.18-0.04 0-0.09 0.09-0.09 0.18-0.09h0.4l0.04-0.13c0.13-0.35 0.26-0.84 0.53-1.1 0.22-0.22 0.7-0.48 1.01-0.48 0.26 0 0.48 0.09 0.48 0.4 0 0.18-0.13 0.26-0.31 0.26-0.4 0-0.13-0.48-0.44-0.48-0.13 0-0.26 0.09-0.31 0.18-0.22 0.22-0.35 0.66-0.44 0.92l-0.09 0.44h0.48c0.04 0 0.18 0 0.18 0.04 0 0 0 0.04-0.04 0.09h-0.7l-0.84 2.82c-0.13 0.35-0.18 0.66-0.4 0.97s-0.53 0.57-0.97 0.57h-0.03z"></path> <path class="st7" d="m65.34 27.05v0.44c-0.18 0-0.44-0.09-0.44-0.31 0-0.13 0.13-0.26 0.22-0.26 0.13 0 0.17 0.09 0.22 0.13z"></path> <path class="st7" d="m65.34 21.72v0.18c-0.4 0-0.44 0.18-0.53 0.48l-0.93 3c0 0.04-0.04 0.18-0.04 0.22 0 0.13 0.09 0.13 0.26 0.13h0.26c0.4 0 0.75 0 0.97-0.26v0.44h-2.55c-0.04 0-0.13 0-0.13-0.04 0-0.09 0.09-0.09 0.18-0.09s0.26 0 0.35-0.09c0.13-0.09 0.18-0.31 0.22-0.44l0.88-2.86c0-0.09 0.09-0.22 0.09-0.31 0-0.18-0.13-0.18-0.35-0.18-0.09 0-0.18 0-0.18-0.13 0-0.04 0.04-0.04 0.22-0.04 0.22 0 0.44 0 0.62 0.04 0.22-0.05 0.44-0.05 0.66-0.05z"></path> <path class="st7" d="m70.58 24.19-0.31 0.97c-0.04 0.18-0.09 0.44-0.09 0.57s0.04 0.26 0.18 0.26c0.31 0 0.71-0.35 0.93-0.57 0.04-0.04 0.31-0.4 0.31-0.48 0-0.04 0-0.04-0.04-0.04l-0.04 0.04c-0.13 0.18-0.48 0.66-0.7 0.66-0.09 0-0.13-0.04-0.13-0.13s0.04-0.18 0.04-0.26l0.66-2.16c0.04-0.04 0.04-0.09 0.04-0.13 0-0.09-0.04-0.09-0.22-0.09-0.26 0-0.22 0.04-0.26 0.31-0.22 0.66-0.57 1.28-1.01 1.81-0.18 0.22-0.75 0.75-1.06 0.75-0.13 0-0.18-0.09-0.18-0.18s0.04-0.22 0.04-0.31l0.53-1.63c0.09-0.13 0.13-0.31 0.13-0.44s-0.04-0.31-0.22-0.31c-0.26 0-0.57 0.31-0.75 0.44-0.04 0.09-0.35 0.44-0.35 0.57 0 0 0 0.04 0.04 0.04s0.09-0.13 0.13-0.18c0.09-0.13 0.4-0.53 0.57-0.53 0.04 0 0.09 0.09 0.09 0.13 0 0.09-0.04 0.22-0.09 0.26l-0.53 1.54c-0.04 0.13-0.13 0.35-0.13 0.53 0 0.22 0.09 0.35 0.31 0.35 0.4 0 0.88-0.35 1.15-0.62 0.44-0.35 0.62-0.66 0.92-1.1z"></path> <path class="st7" d="m68.02 21.94c0-0.13-0.09-0.22-0.22-0.22-0.22 0-0.35 0.26-0.35 0.44 0 0.13 0.04 0.22 0.22 0.22s0.35-0.22 0.35-0.44z"></path> <path class="st7" d="m65.34 21.9v-0.18h0.13c0.09 0 0.13 0 0.13 0.09s-0.13 0.09-0.18 0.09z"></path> <path class="st7" d="m65.34 25.91c0.18 0 0.22 0 0.26-0.22l0.18-0.48v-0.18c0-0.04 0-0.09-0.04-0.09-0.09 0-0.13 0.13-0.13 0.18-0.09 0.18-0.18 0.26-0.26 0.35v0.44z"></path> <path class="st7" d="m65.34 27.49v-0.44c0.09 0.13 0.18 0.31 0.35 0.31 0.26 0 0.35-0.35 0.4-0.57l0.97-3.22c0.04-0.04 0.09-0.18 0.09-0.22s-0.04-0.13-0.09-0.13c-0.22 0-0.62 0.57-0.7 0.57-0.04 0-0.04 0-0.04-0.04 0-0.09 0.31-0.4 0.35-0.44 0.18-0.13 0.53-0.48 0.79-0.48 0.13 0 0.18 0.13 0.18 0.26s-0.04 0.35-0.09 0.48l-0.79 2.51c-0.09 0.35-0.22 0.79-0.53 1.06-0.18 0.22-0.48 0.35-0.79 0.35z"></path> <path class="st7" d="m73.66 21.24v0.35l-0.84 2.78c0.18-0.31 0.48-0.7 0.84-1.06v0.22c-0.53 0.57-1.1 1.5-1.1 1.94 0 0.26 0.22 0.4 0.48 0.4 0.22 0 0.44-0.04 0.62-0.18v0.22c-0.18 0.04-0.4 0.09-0.57 0.09-0.53 0-0.88-0.26-0.88-0.79 0-0.26 0.09-0.53 0.18-0.79l0.7-2.33c0-0.09 0.09-0.26 0.09-0.31 0-0.13-0.09-0.18-0.22-0.18 0 0-0.22 0-0.22-0.04 0-0.13 0.13-0.13 0.22-0.13 0.26-0.02 0.44-0.02 0.7-0.19z"></path> <path class="st7" d="m73.66 21.59v-0.35h0.04c0.04 0 0.09 0 0.09 0.04z"></path> <path class="st7" d="m73.66 25.91v-0.22c0.66-0.4 1.15-1.32 1.15-1.94 0-0.26-0.09-0.62-0.4-0.62-0.22 0-0.48 0.18-0.75 0.4v-0.22c0.31-0.26 0.66-0.48 0.92-0.48 0.53 0 0.7 0.48 0.7 0.93 0.01 0.91-0.7 1.84-1.62 2.15z"></path> <path class="st7" d="m76.7 27.32v0.18h-0.13c-0.22 0-0.53-0.09-0.53-0.31 0-0.13 0.13-0.26 0.22-0.26 0.26-0.01 0.26 0.3 0.44 0.39z"></path> <path class="st7" d="m76.7 21.86v1.54l-0.57 1.81c0 0.09-0.04 0.18-0.04 0.26 0 0.04 0.04 0.13 0.09 0.13 0.13 0 0.4-0.35 0.53-0.53v0.22c-0.04 0.04-0.09 0.09-0.09 0.13-0.19 0.18-0.54 0.58-0.85 0.58-0.18 0-0.18-0.09-0.18-0.26 0-0.18 0.04-0.4 0.09-0.57l0.92-3.04c0.06-0.05 0.1-0.19 0.1-0.27z"></path> <path class="st7" d="m76.7 21.46v0.35c-0.04-0.13-0.18-0.13-0.26-0.13h-0.09c-0.04 0-0.09-0.04-0.09-0.09 0-0.09 0.13-0.09 0.18-0.09 0.08 0 0.17 0 0.26-0.04z"></path> <path class="st7" d="m79.17 21.94c0-0.13-0.09-0.22-0.22-0.22-0.22 0-0.35 0.26-0.35 0.44 0 0.13 0.04 0.22 0.22 0.22 0.17 0 0.35-0.22 0.35-0.44z"></path> <path class="st7" d="m76.7 23.4 0.62-1.94v-0.18c0-0.04 0-0.04-0.04-0.04h-0.04c-0.18 0.13-0.35 0.22-0.53 0.22v1.94z"></path> <path class="st7" d="m76.7 25.29c0.09-0.09 0.18-0.26 0.18-0.35v-0.04c-0.09 0-0.09 0.04-0.13 0.09 0 0 0 0.04-0.04 0.09v0.21z"></path> <path class="st7" d="m76.7 27.49v-0.18c0.04 0.04 0.09 0.04 0.13 0.04 0.26 0 0.35-0.35 0.4-0.57l0.97-3.22c0.04-0.04 0.09-0.18 0.09-0.22s-0.04-0.13-0.09-0.13c-0.22 0-0.62 0.57-0.7 0.57-0.04 0-0.04 0-0.04-0.04 0-0.09 0.31-0.4 0.35-0.44 0.18-0.13 0.53-0.48 0.79-0.48 0.13 0 0.18 0.13 0.18 0.26s-0.04 0.35-0.09 0.48l-0.79 2.51c-0.09 0.35-0.22 0.79-0.53 1.06-0.19 0.19-0.41 0.32-0.67 0.36z"></path> <path class="st7" d="m80.71 23v0.26c-0.22 0.13-0.4 0.35-0.57 0.53-0.22 0.35-0.62 1.01-0.62 1.45 0 0.18 0.13 0.4 0.31 0.4 0.26 0 0.57-0.26 0.88-0.53v0.22c-0.4 0.35-0.79 0.66-1.15 0.66-0.4 0-0.53-0.35-0.53-0.7 0-0.57 0.35-1.23 0.75-1.63 0.27-0.26 0.57-0.53 0.93-0.66z"></path> <path class="st7" d="m86.3 23.71c0.04-0.13 0.13-0.35 0.13-0.48 0-0.26-0.22-0.4-0.44-0.4-0.84 0-1.63 1.19-2.03 1.85l0.31-0.92c0.04-0.18 0.09-0.4 0.09-0.57 0-0.22-0.04-0.35-0.26-0.35-0.31 0-0.62 0.35-0.79 0.53-0.09 0.09-0.31 0.4-0.31 0.44s0.04 0.04 0.04 0.04c0.04 0 0.09 0 0.09-0.04 0.09-0.13 0.44-0.62 0.62-0.62 0.13 0 0.13 0.09 0.13 0.18 0 0.13-0.04 0.26-0.09 0.35l-0.57 1.98c0 0.04-0.04 0.13-0.04 0.13 0 0.09 0.04 0.09 0.22 0.09 0.22 0 0.22-0.04 0.26-0.22 0.18-0.53 0.66-1.41 1.01-1.85 0.22-0.22 0.66-0.75 1.01-0.75 0.13 0 0.22 0.09 0.22 0.26 0 0.09-0.04 0.22-0.09 0.35l-0.48 1.28c-0.09 0.22-0.18 0.48-0.18 0.7s0.09 0.31 0.31 0.31c0.27 0 0.66-0.4 0.84-0.57 0.04-0.04 0.31-0.4 0.31-0.48l-0.04-0.04c-0.04 0-0.09 0.04-0.09 0.09-0.09 0.18-0.48 0.62-0.7 0.62-0.09 0-0.13-0.04-0.13-0.13s0.09-0.22 0.09-0.31z"></path> <path class="st7" d="m80.71 25.34v-0.22c0.13-0.18 0.31-0.4 0.4-0.48 0.18-0.22 0.75-1.01 0.75-1.32 0-0.26-0.22-0.35-0.44-0.35-0.26 0-0.53 0.13-0.7 0.31v-0.28c0.22-0.09 0.44-0.18 0.7-0.18 0.22 0 0.4 0.04 0.53 0.26v-0.08c0.09-0.22 0.09-0.22 0.31-0.22 0.13 0 0.22 0 0.22 0.04s-0.04 0.13-0.04 0.13l-0.7 2.29c0 0.04-0.04 0.13-0.04 0.22 0 0.04 0 0.09 0.09 0.09 0.13 0 0.48-0.44 0.53-0.53 0.04-0.04 0.09-0.13 0.13-0.13s0.04 0 0.04 0.04c0 0.13-0.26 0.48-0.35 0.57-0.2 0.19-0.55 0.5-0.82 0.5-0.13 0-0.18-0.09-0.18-0.18 0-0.13 0.04-0.26 0.04-0.4l0.44-1.32c-0.21 0.31-0.56 0.84-0.91 1.24z"></path> <path class="st7" d="m88.64 23v0.26c-0.22 0.13-0.4 0.35-0.53 0.53-0.26 0.35-0.62 1.01-0.62 1.45 0 0.18 0.09 0.4 0.31 0.4s0.57-0.26 0.84-0.53v0.22c-0.36 0.36-0.8 0.67-1.15 0.67-0.4 0-0.53-0.35-0.53-0.7 0-0.57 0.4-1.23 0.75-1.63 0.26-0.27 0.57-0.54 0.93-0.67z"></path> <path class="st7" d="m88.64 25.34v-0.22c0.18-0.18 0.31-0.4 0.4-0.48 0.18-0.22 0.75-1.01 0.75-1.32 0-0.26-0.22-0.35-0.44-0.35-0.26 0-0.48 0.13-0.7 0.31v-0.28c0.22-0.09 0.48-0.18 0.7-0.18 0.26 0 0.4 0.04 0.53 0.26l0.03-0.08c0.04-0.22 0.04-0.22 0.26-0.22 0.18 0 0.22 0 0.22 0.04s-0.04 0.13-0.04 0.13l-0.66 2.29c-0.04 0.04-0.09 0.13-0.09 0.22 0 0.04 0.04 0.09 0.09 0.09 0.18 0 0.48-0.44 0.57-0.53 0-0.04 0.04-0.13 0.09-0.13 0.04 0 0.04 0 0.04 0.04 0 0.13-0.26 0.48-0.35 0.57-0.17 0.19-0.52 0.5-0.79 0.5-0.13 0-0.18-0.09-0.18-0.18 0-0.13 0.04-0.26 0.09-0.4l0.4-1.32c-0.22 0.31-0.53 0.84-0.92 1.24z"></path> <path class="st7" d="m24.9 31.98v0.13c0 0.31-0.04 0.4-0.44 0.4-0.04 0-0.18 0-0.18 0.09s0.04 0.09 0.13 0.09h1.5c0.09 0 0.13 0 0.13-0.09s-0.13-0.09-0.18-0.09c-0.44 0-0.44-0.09-0.44-0.53v-1.28c0-0.22 0.09-0.22 0.35-0.22 0.18 0 0.53 0 0.79 0.09 0.18 0 0.22 0.22 0.22 0.4 0.04 0.04 0.04 0.13 0.09 0.13 0.04 0 0.09 0 0.09-0.13 0-0.22 0-0.4-0.04-0.62 0.04-0.22 0.04-0.4 0.04-0.57 0-0.09-0.04-0.09-0.09-0.09-0.04 0-0.04 0.09-0.09 0.13 0 0.18-0.04 0.44-0.22 0.44-0.26 0.04-0.62 0.04-0.79 0.04-0.31 0-0.35 0-0.35-0.31v-0.97c0-0.09 0-0.26 0.09-0.31 0.09-0.04 0.44-0.04 0.57-0.04 0.62 0 1.01 0 1.19 0.62 0 0.04 0.04 0.13 0.09 0.13 0.09 0 0.09-0.04 0.09-0.26v-0.44c0-0.18 0-0.26-0.13-0.26-0.75 0-1.54 0.04-2.29 0.04-0.22 0-0.4-0.04-0.62-0.04-0.09 0-0.13 0.04-0.13 0.09 0 0.09 0.09 0.13 0.18 0.13 0.4 0 0.44 0.09 0.44 0.53z"></path> <path class="st7" d="m41.33 32.33v-0.04zm-0.02 0.04v-0.09h0.02v0.04c-0.01 0.03-0.01 0.04-0.02 0.05zm0-2.55v-0.04h0.02v0.04zm0.02 0c0 0.04 0.09 0.04 0.13 0.04 0.26 0 0.35 0.26 0.44 0.44l0.88 2.11c0.04 0.09 0.09 0.22 0.09 0.31 0 0.04-0.04 0.13-0.04 0.18l-0.26 0.53c0 0.13-0.04 0.22-0.18 0.26h-0.26c-0.22 0-0.22 0.09-0.22 0.26 0 0.22 0.18 0.22 0.35 0.22 0.26 0 0.26-0.04 0.35-0.26l1.32-3.21c0.09-0.18 0.26-0.53 0.4-0.7 0.09-0.09 0.22-0.13 0.26-0.13 0.09-0.04 0.18-0.04 0.18-0.04 0-0.09-0.04-0.09-0.09-0.09h-1.1c-0.04 0-0.09 0-0.09 0.09 0 0.04 0.09 0.04 0.18 0.04 0.13 0 0.35 0.04 0.35 0.22 0 0.09-0.09 0.22-0.09 0.31l-0.79 1.72-0.75-1.81c0-0.04-0.09-0.18-0.09-0.26 0-0.18 0.26-0.18 0.35-0.18s0.18-0.04 0.18-0.04c0-0.09-0.04-0.09-0.09-0.09h-1.32c-0.04 0-0.09 0-0.09 0.04zm-0.02-0.04v0.04h-0.02c0-0.03 0-0.04 0.02-0.04zm0 2.5c-0.02-0.01-0.02-0.04-0.02-0.04-0.09 0-0.26 0.26-0.48 0.26-0.4 0-0.4-0.53-0.4-0.79v-1.71c0-0.13 0.04-0.13 0.22-0.13h0.4c0.18 0 0.22-0.04 0.22-0.13 0-0.04 0-0.09-0.09-0.09h-0.66c-0.09 0-0.09-0.04-0.09-0.13v-0.48c0-0.04-0.04-0.09-0.09-0.09 0 0-0.04 0.04-0.04 0.09-0.18 0.31-0.35 0.48-0.66 0.66 0 0.04-0.04 0.04-0.04 0.13 0 0.04 0.04 0.04 0.18 0.04 0.13 0 0.18 0 0.18 0.13v1.9c0 0.22 0 0.48 0.13 0.66 0.13 0.13 0.31 0.18 0.48 0.18 0.26 0 0.48-0.09 0.66-0.22 0.04-0.04 0.07-0.07 0.11-0.14v-0.1zm-12.31 0.36c0.31-0.18 0.53-0.4 0.57-0.4 0.09 0 0.13 0.48 0.48 0.48 0.13 0 0.31-0.13 0.44-0.22 0.04-0.04 0.18-0.13 0.18-0.22 0 0 0-0.04-0.04-0.04s-0.13 0.18-0.31 0.18c-0.22 0-0.22-0.4-0.22-0.53v-1.59c0-0.26-0.04-0.4-0.13-0.48-0.18-0.18-0.4-0.18-0.62-0.18h-0.35v0.13c0.04 0 0.13-0.04 0.18-0.04 0.44 0 0.44 0.31 0.44 0.62v0.31c0 0.26 0 0.26-0.22 0.4l-0.4 0.17v0.13l0.48-0.26c0.04 0 0.09-0.04 0.09-0.04 0.04 0 0.04 0.09 0.04 0.22v0.4c0 0.22 0 0.35-0.18 0.48-0.09 0.13-0.26 0.22-0.44 0.26v0.22zm4.71-2.51v-0.13c0-0.04 0-0.13-0.04-0.13-0.22-0.18-0.57-0.22-0.84-0.22-0.88 0-1.76 0.7-1.76 1.59 0 0.84 0.7 1.5 1.54 1.5 0.35 0 0.66-0.09 0.97-0.31 0.04-0.04 0.18-0.18 0.18-0.26 0 0 0-0.04-0.04-0.04s-0.09 0.09-0.09 0.09c-0.22 0.22-0.48 0.31-0.79 0.31-0.75 0-1.23-0.7-1.23-1.41 0-0.4 0.18-0.79 0.48-1.06 0.18-0.18 0.44-0.31 0.66-0.31 0.57 0 0.66 0.75 0.88 0.75 0.09 0 0.09-0.09 0.09-0.18v-0.19zm3.35-0.26c0-0.13 0-0.13-0.09-0.13h-0.75c-0.09 0-0.13 0-0.13 0.04 0 0.09 0.13 0.09 0.22 0.09 0.26 0 0.31 0.13 0.31 0.31 0 0.04-0.04 0.13-0.04 0.22v1.41c0 0.13 0 0.26-0.09 0.35-0.18 0.22-0.44 0.31-0.7 0.31s-0.57-0.09-0.7-0.31c-0.09-0.18-0.09-0.53-0.09-0.75v-1.45c0-0.18-0.04-0.22-0.13-0.22h-0.84c0 0.13 0.13 0.13 0.18 0.13 0.26 0 0.31 0.13 0.31 0.31v1.23c0 0.35 0 0.66 0.22 0.97 0.18 0.22 0.44 0.35 0.79 0.35 0.57 0 0.92-0.44 1.01-0.44 0.04 0 0.04 0.09 0.04 0.26v0.18s0 0.04 0.04 0.04c0 0 0.04-0.04 0.09-0.04 0.18-0.13 0.44-0.22 0.66-0.31 0.04 0 0.13 0 0.13-0.09 0-0.04-0.04-0.04-0.09-0.04h-0.09c-0.26 0-0.26-0.09-0.26-0.26v-0.18zm1.76-1.81c0-0.04 0-0.09-0.04-0.09-0.09 0-0.13 0.04-0.18 0.04-0.13 0.13-0.4 0.18-0.57 0.22-0.04 0-0.13 0.04-0.13 0.09 0 0.04 0.09 0.04 0.18 0.04 0.26 0 0.31 0.18 0.31 0.35 0 0.04-0.04 0.13-0.04 0.22v3.04c0 0.09 0.04 0.13 0.04 0.22 0 0.18-0.04 0.31-0.35 0.35-0.04 0-0.18 0-0.18 0.09 0 0.04 0.04 0.04 0.09 0.04h1.28c0.04 0 0.09 0 0.09-0.04 0-0.09-0.13-0.09-0.18-0.09-0.26-0.04-0.31-0.18-0.31-0.35v-4.13zm-9.95 3.22 0.13-0.05v0.13l-0.09 0.04c-0.26 0.13-0.53 0.31-0.53 0.62 0 0.26 0.22 0.4 0.44 0.4h0.18v0.22c-0.13 0.04-0.31 0.09-0.48 0.09-0.35 0-0.66-0.18-0.66-0.53-0.01-0.44 0.61-0.75 1.01-0.92zm0.13-1.63v0.13c-0.31 0.04-0.44 0.26-0.57 0.53-0.04 0.13-0.09 0.22-0.18 0.26s-0.22 0.09-0.31 0.09c-0.04 0-0.09-0.04-0.09-0.09 0-0.18 0.18-0.35 0.26-0.48 0.27-0.22 0.58-0.36 0.89-0.44z" stroke-width=".34691"></path> <path class="st4" d="m116.96 34.18v-0.13c0.31-0.13 0.62-0.31 0.62-0.66 0-0.22-0.13-0.35-0.31-0.44-0.09-0.04-0.22-0.09-0.31-0.13v-0.44c0.48 0.13 1.01 0.4 1.01 0.88 0 0.31-0.22 0.53-0.48 0.7-0.18 0.09-0.36 0.18-0.53 0.22zm-1.94-0.47c0.3 0.36 1.04 0.51 1.45 0.51 0.13 0 0.31-0.04 0.48-0.04v-0.13c-0.18 0-0.31 0.04-0.44 0.04-0.48 0-1.23-0.22-1.23-0.79 0-0.48 0.57-0.62 0.97-0.75l0.35 0.13c0.13 0.04 0.22 0.09 0.35 0.13v-0.44c-0.22-0.09-0.4-0.13-0.53-0.18-0.18-0.04-0.53-0.13-0.53-0.35 0-0.13 0.13-0.22 0.22-0.31 0.18 0.18 0.44 0.26 0.7 0.26h0.13v-0.13h-0.18c-0.4 0-0.62-0.35-0.62-0.7 0-0.44 0.31-1.1 0.79-1.23v-0.13c-0.62 0.04-1.23 0.48-1.23 1.1 0 0.31 0.09 0.57 0.31 0.75-0.18 0.13-0.4 0.31-0.4 0.57s0.22 0.4 0.44 0.48c-0.33 0.08-0.82 0.17-1.06 0.43v0.78zm0-1.88v-0.16s0.04 0 0.04 0.04-0.02 0.08-0.04 0.12zm1.94-0.03v-0.13c0.48-0.13 0.75-0.84 0.75-1.32 0-0.35-0.18-0.66-0.57-0.66-0.09 0-0.13 0-0.18 0.04v-0.13h0.09c0.18 0 0.4 0.04 0.57 0.09h0.7c0.13 0 0.18 0 0.18 0.04 0 0 0 0.04-0.04 0.04 0 0.09-0.04 0.13-0.18 0.13h-0.44c0.18 0.18 0.31 0.44 0.31 0.75 0 0.26-0.13 0.57-0.31 0.79-0.27 0.23-0.57 0.36-0.88 0.36zm-1.94-0.13v0.16c-0.01 0.02-0.03 0.04-0.04 0.06v-0.22zm0 1.27v0.77c-0.02-0.02-0.03-0.04-0.04-0.06v-0.66c0.01-0.02 0.02-0.03 0.04-0.05zm-5.53-2.37v-0.11l0.02-0.02v0.13zm0-0.42v-0.44l0.02 0.02v0.4zm5.49 1.52-0.04 0.04c-0.13 0.18-0.48 0.66-0.7 0.66-0.09 0-0.13-0.04-0.13-0.13s0.09-0.26 0.09-0.35l0.57-1.45c0.04-0.13 0.13-0.31 0.13-0.48 0-0.22-0.22-0.35-0.44-0.35-0.88 0-1.63 1.19-2.03 1.85l0.26-0.92c0.09-0.22 0.13-0.4 0.13-0.62 0-0.18-0.09-0.31-0.26-0.31-0.31 0-0.66 0.31-0.79 0.53-0.09 0.04-0.31 0.35-0.31 0.44 0 0.04 0.04 0.04 0.04 0.04 0.04 0 0.09-0.04 0.09-0.09 0.09-0.13 0.44-0.57 0.62-0.57 0.09 0 0.13 0.04 0.13 0.13 0 0.13-0.04 0.26-0.09 0.4l-0.57 1.94c-0.04 0.04-0.04 0.13-0.04 0.18 0 0.04 0.04 0.09 0.22 0.09s0.22-0.04 0.26-0.26c0.18-0.48 0.66-1.41 1.01-1.81 0.22-0.26 0.66-0.75 1.01-0.75 0.13 0 0.22 0.09 0.22 0.22s-0.04 0.26-0.09 0.35l-0.48 1.28c-0.09 0.22-0.18 0.48-0.18 0.75 0 0.18 0.09 0.26 0.31 0.26 0.26 0 0.66-0.35 0.84-0.57 0.04-0.04 0.13-0.13 0.22-0.26zm0 1.32c-0.09 0.09-0.13 0.18-0.13 0.31s0.04 0.22 0.13 0.35zm-5.47-2.42c0.09 0 0.44-0.57 0.66-0.57 0.09 0 0.09 0.04 0.09 0.09 0 0.09-0.04 0.18-0.04 0.22l-0.48 1.59c-0.04 0.18-0.13 0.4-0.13 0.57 0 0.18 0.04 0.26 0.22 0.26 0.26 0 0.66-0.35 0.84-0.57 0.04-0.09 0.26-0.35 0.26-0.48 0 0 0-0.04-0.04-0.04s-0.09 0.04-0.09 0.09c-0.09 0.13-0.44 0.62-0.57 0.62-0.09 0-0.09-0.04-0.09-0.13s0-0.18 0.04-0.26l0.48-1.63c0.04-0.09 0.13-0.35 0.13-0.48s-0.04-0.22-0.22-0.22c-0.26 0-0.62 0.31-0.79 0.48-0.04 0.04-0.22 0.22-0.26 0.35v0.11zm0-0.44v-0.4zm1.63-1.41c0-0.13-0.09-0.26-0.22-0.26-0.18 0-0.35 0.26-0.35 0.44 0 0.13 0.09 0.26 0.22 0.26 0.22 0 0.35-0.26 0.35-0.44zm-1.65 0.99v0.44c-0.08 0.08-0.17 0.15-0.29 0.15-0.31 0-0.13-0.31-0.31-0.31s-0.62 0.62-0.66 0.7c-0.26 0.4-0.7 1.23-0.84 1.67-0.04 0.22-0.04 0.31-0.31 0.31-0.04 0-0.18 0-0.18-0.09 0-0.04 0.04-0.18 0.04-0.22l0.57-1.89c0.04-0.13 0.09-0.26 0.09-0.4 0-0.09 0-0.13-0.09-0.13-0.13 0-0.4 0.31-0.48 0.44l-0.09 0.09s-0.04 0.09-0.09 0.09c-0.04 0-0.04 0-0.04-0.04 0-0.09 0.26-0.44 0.35-0.48 0.13-0.18 0.44-0.44 0.66-0.44s0.26 0.22 0.26 0.4c0 0.13-0.04 0.31-0.09 0.44l-0.31 0.97c0.26-0.44 0.92-1.81 1.5-1.81 0.15 0 0.23 0.04 0.31 0.11zm0 0.75c-0.02 0.02-0.02 0.03-0.02 0.07 0 0.03 0 0.04 0.02 0.04zm-18.56 3.25v-0.77c0.24-0.27 0.77-0.35 1.06-0.43-0.22-0.09-0.44-0.22-0.44-0.48s0.22-0.44 0.4-0.57c-0.18-0.18-0.31-0.44-0.31-0.75 0-0.62 0.62-1.06 1.23-1.1v0.13c-0.48 0.13-0.79 0.79-0.79 1.23 0 0.35 0.22 0.7 0.62 0.7h0.18v0.13h-0.13c-0.26 0-0.53-0.09-0.7-0.26-0.09 0.09-0.22 0.18-0.22 0.31 0 0.22 0.35 0.31 0.53 0.35 0.13 0.04 0.35 0.09 0.53 0.18v0.44c-0.13-0.04-0.22-0.09-0.31-0.13l-0.4-0.13c-0.35 0.13-0.97 0.26-0.97 0.75 0 0.57 0.75 0.79 1.23 0.79 0.13 0 0.31-0.04 0.44-0.04v0.13c-0.18 0-0.35 0.04-0.48 0.04-0.44 0-1.17-0.16-1.47-0.52zm0-1.88c0.03-0.04 0.04-0.09 0.04-0.12 0-0.04-0.04-0.04-0.04-0.04zm14.22 0.81v-0.22c0.35-0.09 0.66-0.31 0.84-0.57 0.04-0.04 0.04-0.04 0.09-0.04 0.04 0 0.04 0 0.04 0.04s-0.13 0.22-0.18 0.26c-0.21 0.22-0.48 0.44-0.79 0.53zm0-1.36v-0.13c0.31-0.09 0.53-0.22 0.7-0.44 0.13-0.13 0.22-0.4 0.22-0.62s-0.13-0.35-0.4-0.35c-0.18 0-0.35 0.04-0.53 0.13v-0.18c0.22-0.04 0.4-0.09 0.62-0.09 0.35 0 0.79 0.22 0.79 0.62 0.01 0.66-0.69 0.92-1.4 1.06zm0-1.59c-0.79 0.31-1.45 1.15-1.45 1.98 0 0.62 0.35 1.06 0.97 1.06 0.18 0 0.35 0 0.48-0.09v-0.22c-0.04 0-0.13 0.04-0.22 0.04-0.48 0-0.7-0.35-0.7-0.79v-0.26h0.09c0.26-0.04 0.53-0.04 0.84-0.13v-0.13c-0.31 0.09-0.62 0.13-0.88 0.13 0.13-0.48 0.44-1.1 0.88-1.41v-0.18zm-2.95 2.95v-0.22c0.35-0.09 0.66-0.31 0.84-0.57 0.04-0.04 0.04-0.04 0.09-0.04 0.04 0 0.04 0 0.04 0.04s-0.13 0.22-0.18 0.26c-0.22 0.22-0.48 0.44-0.79 0.53zm0-1.36v-0.13c0.31-0.09 0.53-0.22 0.7-0.44 0.13-0.13 0.22-0.4 0.22-0.62s-0.18-0.35-0.4-0.35c-0.18 0-0.35 0.04-0.53 0.13v-0.18c0.22-0.04 0.4-0.09 0.62-0.09 0.35 0 0.79 0.22 0.79 0.62 0.01 0.66-0.69 0.92-1.4 1.06zm0-1.59c-0.79 0.31-1.45 1.15-1.45 1.98 0 0.62 0.35 1.06 0.97 1.06 0.18 0 0.35 0 0.48-0.09v-0.22c-0.04 0-0.13 0.04-0.22 0.04-0.48 0-0.7-0.35-0.7-0.79v-0.26h0.09c0.22-0.04 0.53-0.04 0.84-0.13v-0.13c-0.31 0.09-0.62 0.13-0.88 0.13 0.13-0.48 0.44-1.1 0.88-1.41v-0.18zm-9.34 4.49c0.18-0.04 0.4-0.13 0.53-0.22 0.26-0.18 0.48-0.4 0.48-0.7 0-0.48-0.53-0.75-1.01-0.88v0.44c0.13 0.04 0.22 0.09 0.31 0.13 0.18 0.09 0.31 0.22 0.31 0.44 0 0.35-0.31 0.53-0.62 0.66zm0-2.38c0.31 0 0.66-0.13 0.88-0.35 0.18-0.22 0.35-0.53 0.35-0.79 0-0.31-0.18-0.57-0.35-0.75h0.44c0.18 0 0.18-0.04 0.22-0.13v-0.04c0-0.04-0.04-0.04-0.18-0.04h-0.7c-0.18-0.04-0.4-0.09-0.57-0.09h-0.09v0.13c0.04-0.04 0.09-0.04 0.18-0.04 0.4 0 0.57 0.31 0.57 0.66 0 0.48-0.26 1.19-0.75 1.32zm2.21 0.09c-0.04 0.18-0.13 0.4-0.13 0.57 0 0.18 0.04 0.26 0.22 0.26 0.26 0 0.66-0.35 0.79-0.57 0.09-0.09 0.31-0.35 0.31-0.48 0 0 0-0.04-0.04-0.04s-0.09 0.04-0.09 0.09c-0.09 0.13-0.44 0.62-0.62 0.62-0.04 0-0.09-0.04-0.09-0.13s0.04-0.18 0.09-0.26l0.48-1.63c0.04-0.09 0.13-0.35 0.13-0.48s-0.09-0.22-0.22-0.22c-0.26 0-0.62 0.31-0.79 0.48-0.04 0.04-0.35 0.35-0.35 0.44 0 0.04 0.04 0.04 0.04 0.04 0.09 0 0.48-0.57 0.7-0.57 0.04 0 0.09 0.04 0.09 0.09 0 0.09-0.04 0.18-0.04 0.22zm1.41-3.17c0-0.13-0.09-0.26-0.22-0.26-0.22 0-0.35 0.26-0.35 0.44 0 0.13 0.04 0.26 0.22 0.26 0.17 0 0.35-0.26 0.35-0.44zm3.56 1.72c0.09-0.13 0.13-0.31 0.13-0.48 0-0.22-0.18-0.35-0.4-0.35-0.88 0-1.67 1.19-2.03 1.85h-0.04l0.31-0.92c0.04-0.22 0.13-0.4 0.13-0.62 0-0.18-0.09-0.31-0.31-0.31-0.26 0-0.62 0.31-0.79 0.53-0.04 0.04-0.26 0.35-0.26 0.44 0 0.04 0 0.04 0.04 0.04s0.04-0.04 0.09-0.09c0.04-0.13 0.44-0.57 0.62-0.57 0.09 0 0.13 0.04 0.13 0.13 0 0.13-0.04 0.26-0.09 0.4l-0.62 1.94c0 0.04-0.04 0.13-0.04 0.18 0 0.04 0.09 0.09 0.22 0.09 0.22 0 0.22-0.04 0.26-0.26 0.18-0.48 0.7-1.41 1.06-1.81 0.22-0.26 0.62-0.75 0.97-0.75 0.18 0 0.26 0.09 0.26 0.22s-0.04 0.26-0.09 0.35l-0.49 1.28c-0.09 0.22-0.18 0.48-0.18 0.75 0 0.18 0.09 0.26 0.26 0.26 0.31 0 0.7-0.35 0.88-0.57 0.04-0.04 0.31-0.35 0.31-0.44 0-0.04-0.04-0.04-0.09-0.04l-0.04 0.04c-0.13 0.18-0.53 0.66-0.7 0.66-0.09 0-0.13-0.04-0.13-0.13s0.04-0.26 0.09-0.35zm-9.11 1.23v0.16c-0.01 0.02-0.03 0.04-0.04 0.06v-0.22zm0 1.27v0.77c-0.02-0.02-0.03-0.04-0.04-0.06v-0.66c0.01-0.02 0.02-0.03 0.04-0.05zm-3.55-2.35v-0.06h0.02v0.09zm0-1.95v-0.14h0.02v0.13c-0.01 0-0.01 0.01-0.02 0.01zm3.5 3.03c0 0.04-0.04 0.04-0.04 0.04-0.09 0.18-0.48 0.66-0.7 0.66-0.09 0-0.13-0.04-0.13-0.13s0.09-0.26 0.13-0.35l0.53-1.45c0.04-0.13 0.13-0.31 0.13-0.48 0-0.22-0.18-0.35-0.44-0.35-0.84 0-1.63 1.19-2.03 1.85l0.31-0.92c0.04-0.22 0.09-0.4 0.09-0.62 0-0.18-0.04-0.31-0.26-0.31-0.26 0-0.62 0.31-0.79 0.53-0.04 0.04-0.22 0.26-0.26 0.4v0.09c0.04 0 0.09-0.04 0.09-0.09 0.09-0.13 0.44-0.57 0.62-0.57 0.13 0 0.13 0.04 0.13 0.13 0 0.13-0.04 0.26-0.04 0.4l-0.62 1.94c0 0.04-0.04 0.13-0.04 0.18 0 0.04 0.04 0.09 0.22 0.09 0.22 0 0.22-0.04 0.26-0.26 0.18-0.48 0.66-1.41 1.06-1.81 0.18-0.26 0.62-0.75 0.97-0.75 0.18 0 0.22 0.09 0.22 0.22s-0.04 0.26-0.09 0.35l-0.48 1.28c-0.04 0.22-0.18 0.48-0.18 0.75 0 0.18 0.09 0.26 0.31 0.26 0.26 0 0.66-0.35 0.84-0.57 0.04-0.04 0.13-0.13 0.22-0.26v-0.25zm0 1.32c-0.09 0.09-0.09 0.18-0.09 0.31s0 0.22 0.09 0.35zm-3.48-4.36v-0.13 0.04zm-0.02-0.13v0.14c-0.02 0.01-0.02 0.05-0.02 0.08l-0.13 0.48c-0.04 0.04-0.04 0.22-0.13 0.22s-0.09-0.09-0.09-0.18c0-0.53-0.22-0.62-0.75-0.62h-0.4c-0.35 0-0.35 0-0.44 0.26l-0.44 1.45h0.7c0.44 0 0.57-0.04 0.79-0.44 0.04-0.04 0.09-0.18 0.18-0.18 0 0 0.04 0.04 0.04 0.09 0 0 0 0.09-0.04 0.09-0.09 0.26-0.26 0.84-0.31 1.1-0.04 0.09-0.04 0.26-0.13 0.26s-0.09-0.09-0.09-0.13v-0.31c0-0.26-0.13-0.31-0.35-0.31h-0.83l-0.4 1.23c-0.04 0.18-0.09 0.31-0.09 0.48 0 0.09 0 0.18 0.09 0.22s0.35 0.04 0.44 0.04c0.31 0 0.84 0 1.1-0.13s0.44-0.35 0.53-0.57c0.04-0.09 0.04-0.13 0.13-0.13 0.04 0 0.09 0.04 0.09 0.09 0 0-0.04 0.18-0.09 0.18l-0.13 0.48c0 0.04-0.04 0.18-0.09 0.22-0.04 0-0.09 0-0.18 0.04h-2.95c-0.13 0-0.22 0-0.22-0.04 0-0.13 0.09-0.13 0.18-0.13 0.13 0 0.26 0 0.35-0.04 0.13-0.13 0.18-0.31 0.22-0.48l0.88-2.82c0.04-0.09 0.09-0.26 0.09-0.35 0-0.18-0.18-0.18-0.35-0.18-0.04 0-0.18 0-0.18-0.09s0.04-0.09 0.13-0.09h2.82c0.04 0.03 0.05 0.06 0.07 0.07zm0 2.03c-0.02 0.01-0.02 0.04-0.02 0.04l0.02 0.02zm-16.12 0.03v-0.16c0.09-0.13 0.2-0.28 0.24-0.32 0.18-0.18 0.57-0.48 0.79-0.48 0.18 0 0.22 0.09 0.22 0.22s-0.09 0.4-0.09 0.48l-0.53 1.63c0 0.09-0.04 0.18-0.04 0.26 0 0.09 0.04 0.13 0.09 0.13 0.18 0 0.48-0.48 0.57-0.62 0.04-0.04 0.04-0.09 0.09-0.09 0.04 0 0.04 0.04 0.04 0.04 0 0.13-0.22 0.4-0.26 0.48-0.18 0.22-0.53 0.57-0.84 0.57-0.18 0-0.18-0.09-0.18-0.26 0-0.18 0.04-0.4 0.09-0.57l0.48-1.59c0-0.04 0.04-0.13 0.04-0.22 0-0.04 0-0.09-0.04-0.09-0.23 0.03-0.56 0.53-0.67 0.59zm0-0.54c0.01-0.03 0.02-0.07 0.02-0.11 0-0.02-0.01-0.05-0.02-0.09zm6.5 2.05v-0.22c0.18-0.18 0.35-0.35 0.44-0.48 0.18-0.22 0.7-0.97 0.7-1.28 0-0.26-0.18-0.35-0.4-0.35-0.26 0-0.53 0.09-0.75 0.26v-0.26c0.26-0.09 0.48-0.13 0.75-0.13 0.22 0 0.4 0.04 0.53 0.22v-0.04c0.09-0.22 0.04-0.26 0.26-0.26 0.18 0 0.26 0 0.26 0.09 0 0-0.04 0.09-0.04 0.13l-0.7 2.25c0 0.04-0.04 0.18-0.04 0.22s0 0.13 0.04 0.13c0.18 0 0.48-0.44 0.57-0.57 0.04-0.04 0.09-0.13 0.13-0.13s0.04 0.04 0.04 0.04c0 0.13-0.26 0.48-0.35 0.57-0.18 0.18-0.53 0.48-0.79 0.48-0.13 0-0.18-0.04-0.18-0.18 0-0.13 0-0.26 0.04-0.4l0.44-1.32c-0.21 0.35-0.56 0.83-0.95 1.23zm2.37-0.18c-0.04 0.18-0.13 0.4-0.13 0.62 0 0.13 0.04 0.22 0.22 0.22 0.31 0 0.66-0.35 0.84-0.57 0.04-0.09 0.26-0.35 0.26-0.48 0 0 0-0.04-0.04-0.04s-0.04 0.04-0.09 0.09c-0.09 0.13-0.44 0.62-0.57 0.62-0.09 0-0.09-0.04-0.09-0.09 0-0.13 0.04-0.22 0.04-0.31l1.15-3.74 0.04-0.13c0-0.04 0-0.09-0.04-0.09l-0.04 0.04c-0.22 0.18-0.53 0.22-0.79 0.26-0.04 0-0.22 0-0.22 0.09 0 0.04 0.04 0.04 0.09 0.04h0.13c0.09 0 0.26 0 0.26 0.18 0 0.04-0.04 0.22-0.09 0.26zm-2.37-2.16c-0.31 0.18-0.62 0.4-0.88 0.66-0.4 0.4-0.79 1.1-0.79 1.67 0 0.31 0.18 0.66 0.57 0.66 0.35 0 0.75-0.26 1.1-0.66v-0.22c-0.26 0.26-0.57 0.53-0.84 0.53-0.18 0-0.31-0.22-0.31-0.4 0-0.44 0.35-1.1 0.62-1.41 0.13-0.18 0.35-0.4 0.53-0.57zm-4.89-1.01c0-0.13-0.09-0.26-0.22-0.26-0.18 0-0.31 0.26-0.31 0.44 0 0.13 0.04 0.26 0.18 0.26 0.22 0 0.35-0.26 0.35-0.44zm3.04 1.19c0-0.26-0.53-0.31-0.75-0.31-0.48 0-1.06 0.31-1.41 0.66s-0.62 0.84-0.62 1.36c0 0.62 0.4 1.1 1.01 1.1 0.48 0 0.88-0.26 1.19-0.62 0.09-0.04 0.31-0.26 0.31-0.4l-0.04-0.04c-0.13 0-0.53 0.75-1.28 0.75-0.48 0-0.71-0.35-0.71-0.79 0-0.48 0.26-1.1 0.62-1.45 0.13-0.18 0.48-0.44 0.75-0.44 0.31 0 0.26 0.4 0.66 0.4 0.13 0 0.27-0.04 0.27-0.22zm-4.65-0.09v0.2c-0.01 0.03-0.02 0.07-0.02 0.11v-0.4c0 0.03 0.01 0.06 0.02 0.09zm0 0.59v0.16c-0.01 0.01-0.02 0.01-0.02 0.01v-0.13c0-0.02 0.01-0.03 0.02-0.04zm-0.04 0.16h0.02v-0.13l-0.02 0.02zm0-0.4c0.01-0.01 0.02-0.03 0.02-0.04v-0.4c-0.01-0.01-0.01-0.02-0.02-0.03zm0-0.47v0.47c-0.05 0.07-0.13 0.14-0.24 0.14-0.35 0-0.18-0.31-0.35-0.31-0.18 0-0.57 0.62-0.66 0.7-0.26 0.4-0.66 1.23-0.79 1.67-0.09 0.22-0.09 0.31-0.35 0.31-0.04 0-0.18 0-0.18-0.09 0-0.04 0.04-0.18 0.04-0.22l0.62-1.89c0-0.13 0.04-0.26 0.04-0.4 0-0.09 0-0.13-0.09-0.13-0.13 0-0.4 0.31-0.48 0.44l-0.04 0.09c-0.04 0-0.09 0.09-0.13 0.09 0 0-0.04 0-0.04-0.04 0-0.09 0.31-0.44 0.35-0.48 0.13-0.18 0.44-0.44 0.66-0.44s0.26 0.22 0.26 0.4c0 0.13-0.04 0.31-0.09 0.44l-0.31 0.97c0.26-0.44 0.92-1.81 1.5-1.81 0.1-0.01 0.22 0.03 0.28 0.09zm0 0.76c-0.02 0.02-0.02 0.03-0.02 0.07 0 0.03 0 0.04 0.02 0.04zm-12.38 2.26v-0.7c0.01-0.04 0.02-0.08 0.02-0.13l0.92-3.04c0.04-0.04 0.09-0.22 0.09-0.26 0-0.18-0.18-0.18-0.26-0.18h-0.13c-0.04 0-0.04 0-0.04-0.04 0-0.09 0.13-0.09 0.18-0.09 0.26-0.04 0.57-0.09 0.79-0.26l0.04-0.04v0.22l-1.15 3.74c0 0.09-0.04 0.18-0.04 0.31 0 0.04 0 0.09 0.09 0.09 0.18 0 0.49-0.48 0.57-0.62 0.04-0.04 0.04-0.09 0.09-0.09 0.04 0 0.04 0.04 0.04 0.04 0 0.13-0.22 0.4-0.26 0.48-0.18 0.22-0.53 0.57-0.84 0.57-0.05 0.01-0.09 0.01-0.11 0zm0-4.09c0.01-0.03 0.02-0.07 0.02-0.09s-0.01-0.03-0.02-0.04zm3.06 4.01v-0.22c0.31-0.09 0.66-0.31 0.84-0.57 0-0.04 0.04-0.04 0.04-0.04 0.04 0 0.04 0 0.04 0.04s-0.13 0.22-0.18 0.26c-0.17 0.22-0.43 0.44-0.74 0.53zm0-1.36v-0.13c0.26-0.09 0.53-0.22 0.66-0.44 0.13-0.13 0.22-0.4 0.22-0.62s-0.13-0.35-0.4-0.35c-0.18 0-0.35 0.04-0.48 0.13v-0.18c0.18-0.04 0.4-0.09 0.57-0.09 0.4 0 0.79 0.22 0.79 0.62 0.01 0.66-0.7 0.92-1.36 1.06zm4.36-1.37c0-0.26-0.53-0.31-0.75-0.31-0.48 0-1.06 0.31-1.41 0.66s-0.62 0.84-0.62 1.36c0 0.62 0.4 1.1 1.01 1.1 0.48 0 0.88-0.26 1.19-0.62 0.09-0.04 0.31-0.26 0.31-0.4l-0.04-0.04c-0.13 0-0.53 0.75-1.28 0.75-0.48 0-0.7-0.35-0.7-0.79 0-0.48 0.26-1.1 0.57-1.45 0.18-0.18 0.53-0.44 0.79-0.44 0.31 0 0.26 0.4 0.66 0.4 0.14 0 0.27-0.04 0.27-0.22zm1.5-0.04h0.53c0.04 0 0.13 0 0.18-0.04v-0.09c0-0.04-0.04-0.04-0.13-0.04h-0.48l0.18-0.57v-0.18c0-0.04-0.04-0.04-0.18-0.04-0.18 0-0.22 0-0.26 0.09l-0.22 0.7h-0.4c-0.09 0-0.18 0-0.18 0.13 0 0.04 0.13 0.04 0.13 0.04h0.4l-0.63 1.93c-0.04 0.18-0.09 0.4-0.09 0.57 0 0.18 0.04 0.35 0.22 0.35 0.31 0 0.75-0.44 0.92-0.66 0-0.09 0.18-0.31 0.18-0.35s0-0.09-0.04-0.09-0.04 0.04-0.09 0.09c0 0.04-0.09 0.13-0.13 0.18-0.09 0.13-0.31 0.48-0.48 0.48-0.09 0-0.09-0.09-0.09-0.18s0.04-0.22 0.04-0.31zm-5.86-0.18c-0.7 0.26-1.28 0.92-1.45 1.67v0.66c0.13 0.4 0.44 0.7 0.97 0.7 0.18 0 0.31 0 0.48-0.09v-0.22c-0.09 0-0.18 0.04-0.22 0.04-0.48 0-0.71-0.35-0.71-0.79v-0.26h0.09c0.22-0.04 0.53-0.04 0.84-0.13v-0.13c-0.31 0.09-0.66 0.13-0.93 0.13 0.13-0.48 0.44-1.1 0.93-1.41zm-1.45-1.5c0.04-0.04 0.04-0.13 0.04-0.13 0-0.04 0-0.09-0.04-0.09zm0 3.17v0.66zm-1.61-2.86v0.13c-0.01 0.03-0.02 0.07-0.02 0.09v0.04-0.31c0 0.03 0.01 0.04 0.02 0.05zm0 3.52v0.7c-0.01-0.01-0.02-0.02-0.02-0.04v-0.57c0-0.02 0.01-0.05 0.02-0.09zm-0.07 0.62c0.01 0.02 0.03 0.03 0.04 0.05v-0.57c-0.02 0.05-0.03 0.09-0.04 0.14zm0-3.76 0.04-0.11v-0.31h-0.04zm0-0.42v0.42l-0.13 0.33c0 0.04 0 0.22-0.09 0.22s-0.09-0.09-0.09-0.18c0-0.53-0.22-0.62-0.75-0.62h-0.44c-0.31 0-0.31 0-0.4 0.26l-0.44 1.45h0.7c0.44 0 0.57-0.04 0.79-0.44 0.04-0.04 0.09-0.18 0.13-0.18s0.09 0.04 0.09 0.09c0 0 0 0.09-0.04 0.09-0.09 0.26-0.26 0.84-0.35 1.1 0 0.09 0 0.26-0.09 0.26s-0.09-0.09-0.09-0.13v-0.31c0-0.26-0.18-0.31-0.35-0.31h-0.84l-0.38 1.25c-0.04 0.18-0.09 0.31-0.09 0.48 0 0.09 0 0.18 0.09 0.22s0.31 0.04 0.44 0.04c0.31 0 0.84 0 1.1-0.13s0.44-0.35 0.53-0.57c0.04-0.09 0.04-0.13 0.13-0.13 0.04 0 0.09 0.04 0.09 0.09 0 0-0.04 0.18-0.09 0.18l-0.13 0.48c0 0.04-0.04 0.18-0.09 0.22-0.04 0-0.09 0-0.18 0.04h-2.95c-0.13 0-0.22 0-0.22-0.04 0-0.13 0.09-0.13 0.18-0.13s0.26 0 0.35-0.04c0.13-0.13 0.18-0.31 0.22-0.48l0.88-2.82c0.04-0.09 0.09-0.26 0.09-0.35 0-0.18-0.22-0.18-0.35-0.18-0.04 0-0.18 0-0.18-0.09s0.04-0.09 0.13-0.09h0.31zm0 3.79c-0.03 0.09-0.04 0.17-0.04 0.26 0 0.06 0.02 0.1 0.04 0.13zm-8.52 1.95v-0.14c0.09-0.04 0.18-0.13 0.24-0.19 0.13-0.26 0.31-0.88 0.4-1.19l0.88-2.82h-0.35c-0.13 0-0.18 0-0.18-0.04 0-0.13 0.09-0.13 0.22-0.13h0.35l0.04-0.13c0.13-0.35 0.26-0.79 0.53-1.1 0.22-0.22 0.7-0.48 1.01-0.48 0.26 0 0.48 0.13 0.48 0.4 0 0.18-0.09 0.31-0.26 0.31-0.44 0-0.18-0.53-0.48-0.53-0.09 0-0.22 0.13-0.31 0.22-0.22 0.22-0.31 0.62-0.4 0.92l-0.13 0.4h0.48c0.04 0 0.18 0 0.18 0.04s0 0.04-0.04 0.09c0 0.04-0.09 0.04-0.13 0.04h-0.53l-0.88 2.77c-0.09 0.4-0.18 0.66-0.4 0.97-0.18 0.29-0.42 0.52-0.72 0.59zm0-2.39c0.18-0.28 0.29-0.59 0.29-0.93 0-0.27-0.11-0.57-0.29-0.81zm0-1.74v1.74c-0.08 0.12-0.18 0.24-0.29 0.35v-0.97c0.04-0.22 0.09-0.4 0.09-0.57 0-0.22-0.04-0.35-0.09-0.53v-0.31c0.11 0.08 0.21 0.18 0.29 0.29zm0 4v0.14c-0.06 0.01-0.13 0.02-0.2 0.02h-0.09v-0.53c0.04 0.04 0.04 0.13 0.04 0.18 0 0.13 0 0.22 0.13 0.22 0.05-0.01 0.08-0.02 0.12-0.03zm-0.29-4.29c-0.18-0.13-0.4-0.18-0.62-0.18h-0.31v0.18c0.09-0.04 0.22-0.04 0.35-0.04 0.31 0 0.48 0.13 0.57 0.35v-0.31zm-0.92 2.91c0.35-0.09 0.7-0.31 0.93-0.53v-0.97c-0.13 0.57-0.44 1.14-0.93 1.37zm0.92 1.01c-0.04-0.13-0.13-0.22-0.26-0.22s-0.26 0.13-0.26 0.31c0 0.26 0.26 0.4 0.53 0.44v-0.53zm-0.92-4.1v0.18c-0.7 0.26-1.01 1.23-1.01 1.89 0 0.44 0.13 0.93 0.66 0.93 0.13 0 0.22 0 0.35-0.04v0.13c-0.13 0.04-0.26 0.04-0.4 0.04-0.71 0-1.1-0.66-1.1-1.28 0-0.83 0.66-1.67 1.5-1.85z"></path> </g> </svg> 